<?xml version="1.0" encoding="UTF-8" standalone="no"?>
<!DOCTYPE svg PUBLIC "-//W3C//DTD SVG 1.1//EN"
 "http://www.w3.org/Graphics/SVG/1.1/DTD/svg11.dtd">
<!-- Generated by graphviz version 2.38.0 (20140413.2041)
 -->
<!-- Title: SymFunction Pages: 1 -->
<svg width="94pt" height="140pt"
 viewBox="0.00 0.00 94.00 140.00" xmlns="http://www.w3.org/2000/svg" xmlns:xlink="http://www.w3.org/1999/xlink">
<g id="graph0" class="graph" transform="scale(1 1) rotate(0) translate(4 136)">
<title>SymFunction</title>
<polygon fill="white" stroke="none" points="-4,4 -4,-136 90,-136 90,4 -4,4"/>
<!-- Node0 -->
<g id="node1" class="node"><title>Node0</title>
<polygon fill="#bfbfbf" stroke="black" points="6,-0.5 6,-19.5 80,-19.5 80,-0.5 6,-0.5"/>
<text text-anchor="middle" x="43" y="-7.5" font-family="Helvetica,sans-Serif" font-size="10.00">SymFunction</text>
</g>
<!-- Node1 -->
<g id="node2" class="node"><title>Node1</title>
<g id="a_node2"><a xlink:href="classSymExpression.html" target="_top" xlink:title="An object that represents a symbolic expression in Mathematica. ">
<polygon fill="white" stroke="black" points="0,-56.5 0,-75.5 86,-75.5 86,-56.5 0,-56.5"/>
<text text-anchor="middle" x="43" y="-63.5" font-family="Helvetica,sans-Serif" font-size="10.00">SymExpression</text>
</a>
</g>
</g>
<!-- Node1&#45;&gt;Node0 -->
<g id="edge1" class="edge"><title>Node1&#45;&gt;Node0</title>
<path fill="none" stroke="midnightblue" d="M43,-45.8045C43,-36.9102 43,-26.7798 43,-19.7511"/>
<polygon fill="midnightblue" stroke="midnightblue" points="39.5001,-46.083 43,-56.083 46.5001,-46.083 39.5001,-46.083"/>
</g>
<!-- Node2 -->
<g id="node3" class="node"><title>Node2</title>
<g id="a_node3"><a xlink:href="classhandle.html" target="_top" xlink:title="Matlab&#39;s base handle class (documentation generation substitute) ">
<polygon fill="white" stroke="black" points="20.5,-112.5 20.5,-131.5 65.5,-131.5 65.5,-112.5 20.5,-112.5"/>
<text text-anchor="middle" x="43" y="-119.5" font-family="Helvetica,sans-Serif" font-size="10.00">handle</text>
</a>
</g>
</g>
<!-- Node2&#45;&gt;Node1 -->
<g id="edge2" class="edge"><title>Node2&#45;&gt;Node1</title>
<path fill="none" stroke="midnightblue" d="M43,-101.805C43,-92.9102 43,-82.7798 43,-75.7511"/>
<polygon fill="midnightblue" stroke="midnightblue" points="39.5001,-102.083 43,-112.083 46.5001,-102.083 39.5001,-102.083"/>
</g>
</g>
</svg>
