<?xml version="1.0" encoding="UTF-8" standalone="no"?>
<!DOCTYPE svg PUBLIC "-//W3C//DTD SVG 1.1//EN"
 "http://www.w3.org/Graphics/SVG/1.1/DTD/svg11.dtd">
<!-- Generated by graphviz version 2.38.0 (20140413.2041)
 -->
<!-- Title: Controller Pages: 1 -->
<svg width="294pt" height="140pt"
 viewBox="0.00 0.00 294.00 140.00" xmlns="http://www.w3.org/2000/svg" xmlns:xlink="http://www.w3.org/1999/xlink">
<g id="graph0" class="graph" transform="scale(1 1) rotate(0) translate(4 136)">
<title>Controller</title>
<polygon fill="white" stroke="none" points="-4,4 -4,-136 290,-136 290,4 -4,4"/>
<!-- Node0 -->
<g id="node1" class="node"><title>Node0</title>
<polygon fill="#bfbfbf" stroke="black" points="112.5,-56.5 112.5,-75.5 171.5,-75.5 171.5,-56.5 112.5,-56.5"/>
<text text-anchor="middle" x="142" y="-63.5" font-family="Helvetica,sans-Serif" font-size="10.00">Controller</text>
</g>
<!-- Node2 -->
<g id="node3" class="node"><title>Node2</title>
<g id="a_node3"><a xlink:href="classCLFQP.html" target="_top" xlink:title="This class defines a class of Control Lyapunov Functions (CLFs) that use quadratic programming (QP) ...">
<polygon fill="white" stroke="black" points="0,-0.5 0,-19.5 50,-19.5 50,-0.5 0,-0.5"/>
<text text-anchor="middle" x="25" y="-7.5" font-family="Helvetica,sans-Serif" font-size="10.00">CLFQP</text>
</a>
</g>
</g>
<!-- Node0&#45;&gt;Node2 -->
<g id="edge2" class="edge"><title>Node0&#45;&gt;Node2</title>
<path fill="none" stroke="midnightblue" d="M114.336,-52.2321C92.4509,-42.1312 62.5032,-28.3091 43.4523,-19.5164"/>
<polygon fill="midnightblue" stroke="midnightblue" points="112.915,-55.4308 123.461,-56.4435 115.848,-49.075 112.915,-55.4308"/>
</g>
<!-- Node3 -->
<g id="node4" class="node"><title>Node3</title>
<g id="a_node4"><a xlink:href="classIOFeedback.html" target="_top" xlink:title="This class defines the classic input&#45;output feedback linearization controller. ">
<polygon fill="white" stroke="black" points="68,-0.5 68,-19.5 138,-19.5 138,-0.5 68,-0.5"/>
<text text-anchor="middle" x="103" y="-7.5" font-family="Helvetica,sans-Serif" font-size="10.00">IOFeedback</text>
</a>
</g>
</g>
<!-- Node0&#45;&gt;Node3 -->
<g id="edge3" class="edge"><title>Node0&#45;&gt;Node3</title>
<path fill="none" stroke="midnightblue" d="M129.618,-47.8554C122.865,-38.5048 114.791,-27.3265 109.32,-19.7511"/>
<polygon fill="midnightblue" stroke="midnightblue" points="126.868,-50.0254 135.56,-56.083 132.542,-45.927 126.868,-50.0254"/>
</g>
<!-- Node4 -->
<g id="node5" class="node"><title>Node4</title>
<g id="a_node5"><a xlink:href="classJointPD.html" target="_top" xlink:title="This class defines a PD feedback control on the joint space. ">
<polygon fill="white" stroke="black" points="156,-0.5 156,-19.5 208,-19.5 208,-0.5 156,-0.5"/>
<text text-anchor="middle" x="182" y="-7.5" font-family="Helvetica,sans-Serif" font-size="10.00">JointPD</text>
</a>
</g>
</g>
<!-- Node0&#45;&gt;Node4 -->
<g id="edge4" class="edge"><title>Node0&#45;&gt;Node4</title>
<path fill="none" stroke="midnightblue" d="M154.7,-47.8554C161.626,-38.5048 169.906,-27.3265 175.518,-19.7511"/>
<polygon fill="midnightblue" stroke="midnightblue" points="151.745,-45.9641 148.605,-56.083 157.37,-50.1307 151.745,-45.9641"/>
</g>
<!-- Node5 -->
<g id="node6" class="node"><title>Node5</title>
<g id="a_node6"><a xlink:href="classOutputPD.html" target="_top" xlink:title="This class defines the PD controller for system outputs. ">
<polygon fill="white" stroke="black" points="226,-0.5 226,-19.5 286,-19.5 286,-0.5 226,-0.5"/>
<text text-anchor="middle" x="256" y="-7.5" font-family="Helvetica,sans-Serif" font-size="10.00">OutputPD</text>
</a>
</g>
</g>
<!-- Node0&#45;&gt;Node5 -->
<g id="edge5" class="edge"><title>Node0&#45;&gt;Node5</title>
<path fill="none" stroke="midnightblue" d="M169.242,-52.096C190.54,-42.0073 219.542,-28.2697 238.021,-19.5164"/>
<polygon fill="midnightblue" stroke="midnightblue" points="167.603,-48.9995 160.064,-56.4435 170.599,-55.3257 167.603,-48.9995"/>
</g>
<!-- Node1 -->
<g id="node2" class="node"><title>Node1</title>
<g id="a_node2"><a xlink:href="classhandle.html" target="_top" xlink:title="Matlab&#39;s base handle class (documentation generation substitute) ">
<polygon fill="white" stroke="black" points="119.5,-112.5 119.5,-131.5 164.5,-131.5 164.5,-112.5 119.5,-112.5"/>
<text text-anchor="middle" x="142" y="-119.5" font-family="Helvetica,sans-Serif" font-size="10.00">handle</text>
</a>
</g>
</g>
<!-- Node1&#45;&gt;Node0 -->
<g id="edge1" class="edge"><title>Node1&#45;&gt;Node0</title>
<path fill="none" stroke="midnightblue" d="M142,-101.805C142,-92.9102 142,-82.7798 142,-75.7511"/>
<polygon fill="midnightblue" stroke="midnightblue" points="138.5,-102.083 142,-112.083 145.5,-102.083 138.5,-102.083"/>
</g>
</g>
</svg>
