<?xml version="1.0" encoding="UTF-8" standalone="no"?>
<!DOCTYPE svg PUBLIC "-//W3C//DTD SVG 1.1//EN"
 "http://www.w3.org/Graphics/SVG/1.1/DTD/svg11.dtd">
<!-- Generated by graphviz version 2.38.0 (20140413.2041)
 -->
<!-- Title: NonlinearProgram Pages: 1 -->
<svg width="284pt" height="140pt"
 viewBox="0.00 0.00 284.00 140.00" xmlns="http://www.w3.org/2000/svg" xmlns:xlink="http://www.w3.org/1999/xlink">
<g id="graph0" class="graph" transform="scale(1 1) rotate(0) translate(4 136)">
<title>NonlinearProgram</title>
<polygon fill="white" stroke="none" points="-4,4 -4,-136 280,-136 280,4 -4,4"/>
<!-- Node0 -->
<g id="node1" class="node"><title>Node0</title>
<polygon fill="#bfbfbf" stroke="black" points="97,-56.5 97,-75.5 192,-75.5 192,-56.5 97,-56.5"/>
<text text-anchor="middle" x="144.5" y="-63.5" font-family="Helvetica,sans-Serif" font-size="10.00">NonlinearProgram</text>
</g>
<!-- Node2 -->
<g id="node3" class="node"><title>Node2</title>
<g id="a_node3"><a xlink:href="classHybridTrajectoryOptimization.html" target="_top" xlink:title="HybridTrajectoryOptimization defines a particular type of nonlinear programing problem — trajectory ...">
<polygon fill="white" stroke="black" points="0,-0.5 0,-19.5 143,-19.5 143,-0.5 0,-0.5"/>
<text text-anchor="middle" x="71.5" y="-7.5" font-family="Helvetica,sans-Serif" font-size="10.00">HybridTrajectoryOptimization</text>
</a>
</g>
</g>
<!-- Node0&#45;&gt;Node2 -->
<g id="edge2" class="edge"><title>Node0&#45;&gt;Node2</title>
<path fill="none" stroke="midnightblue" d="M124.358,-50.1008C111.221,-40.3824 94.5179,-28.0269 83.4421,-19.8339"/>
<polygon fill="midnightblue" stroke="midnightblue" points="122.65,-53.1907 132.771,-56.324 126.813,-47.5631 122.65,-53.1907"/>
</g>
<!-- Node3 -->
<g id="node4" class="node"><title>Node3</title>
<g id="a_node4"><a xlink:href="classTrajectoryOptimization.html" target="_top" xlink:title="TrajectoryOptimization defines a particular type of nonlinear programing problem — trajectory optimi...">
<polygon fill="white" stroke="black" points="161,-0.5 161,-19.5 276,-19.5 276,-0.5 161,-0.5"/>
<text text-anchor="middle" x="218.5" y="-7.5" font-family="Helvetica,sans-Serif" font-size="10.00">TrajectoryOptimization</text>
</a>
</g>
</g>
<!-- Node0&#45;&gt;Node3 -->
<g id="edge3" class="edge"><title>Node0&#45;&gt;Node3</title>
<path fill="none" stroke="midnightblue" d="M164.534,-50.3804C177.909,-40.6204 195.059,-28.1057 206.394,-19.8339"/>
<polygon fill="midnightblue" stroke="midnightblue" points="162.404,-47.602 156.389,-56.324 166.53,-53.2565 162.404,-47.602"/>
</g>
<!-- Node1 -->
<g id="node2" class="node"><title>Node1</title>
<g id="a_node2"><a xlink:href="classhandle.html" target="_top" xlink:title="Matlab&#39;s base handle class (documentation generation substitute) ">
<polygon fill="white" stroke="black" points="122,-112.5 122,-131.5 167,-131.5 167,-112.5 122,-112.5"/>
<text text-anchor="middle" x="144.5" y="-119.5" font-family="Helvetica,sans-Serif" font-size="10.00">handle</text>
</a>
</g>
</g>
<!-- Node1&#45;&gt;Node0 -->
<g id="edge1" class="edge"><title>Node1&#45;&gt;Node0</title>
<path fill="none" stroke="midnightblue" d="M144.5,-101.805C144.5,-92.9102 144.5,-82.7798 144.5,-75.7511"/>
<polygon fill="midnightblue" stroke="midnightblue" points="141,-102.083 144.5,-112.083 148,-102.083 141,-102.083"/>
</g>
</g>
</svg>
