<?xml version="1.0" encoding="UTF-8" standalone="no"?>
<!DOCTYPE svg PUBLIC "-//W3C//DTD SVG 1.1//EN"
 "http://www.w3.org/Graphics/SVG/1.1/DTD/svg11.dtd">
<!-- Generated by graphviz version 2.38.0 (20140413.2041)
 -->
<!-- Title: frost::Animator::Patch Pages: 1 -->
<svg width="284pt" height="196pt"
 viewBox="0.00 0.00 283.50 196.00" xmlns="http://www.w3.org/2000/svg" xmlns:xlink="http://www.w3.org/1999/xlink">
<g id="graph0" class="graph" transform="scale(1 1) rotate(0) translate(4 192)">
<title>frost::Animator::Patch</title>
<polygon fill="white" stroke="none" points="-4,4 -4,-192 279.5,-192 279.5,4 -4,4"/>
<!-- Node0 -->
<g id="node1" class="node"><title>Node0</title>
<polygon fill="#bfbfbf" stroke="black" points="78,-56.5 78,-75.5 191,-75.5 191,-56.5 78,-56.5"/>
<text text-anchor="middle" x="134.5" y="-63.5" font-family="Helvetica,sans-Serif" font-size="10.00">frost::Animator::Patch</text>
</g>
<!-- Node3 -->
<g id="node4" class="node"><title>Node3</title>
<g id="a_node4"><a xlink:href="classfrost_1_1Animator_1_1Pyramid.html" target="_top" xlink:title="Patch depicting a 3d Pyramid for frost.Animator.Display. ">
<polygon fill="white" stroke="black" points="0,-0.5 0,-19.5 123,-19.5 123,-0.5 0,-0.5"/>
<text text-anchor="middle" x="61.5" y="-7.5" font-family="Helvetica,sans-Serif" font-size="10.00">frost::Animator::Pyramid</text>
</a>
</g>
</g>
<!-- Node0&#45;&gt;Node3 -->
<g id="edge3" class="edge"><title>Node0&#45;&gt;Node3</title>
<path fill="none" stroke="midnightblue" d="M114.358,-50.1008C101.221,-40.3824 84.5179,-28.0269 73.4421,-19.8339"/>
<polygon fill="midnightblue" stroke="midnightblue" points="112.65,-53.1907 122.771,-56.324 116.813,-47.5631 112.65,-53.1907"/>
</g>
<!-- Node4 -->
<g id="node5" class="node"><title>Node4</title>
<g id="a_node5"><a xlink:href="classfrost_1_1Animator_1_1Rectangler.html" target="_top" xlink:title="Patch depicting a 3d rectangler for frost.Animator.Display. ">
<polygon fill="white" stroke="black" points="141.5,-0.5 141.5,-19.5 275.5,-19.5 275.5,-0.5 141.5,-0.5"/>
<text text-anchor="middle" x="208.5" y="-7.5" font-family="Helvetica,sans-Serif" font-size="10.00">frost::Animator::Rectangler</text>
</a>
</g>
</g>
<!-- Node0&#45;&gt;Node4 -->
<g id="edge4" class="edge"><title>Node0&#45;&gt;Node4</title>
<path fill="none" stroke="midnightblue" d="M154.534,-50.3804C167.909,-40.6204 185.059,-28.1057 196.394,-19.8339"/>
<polygon fill="midnightblue" stroke="midnightblue" points="152.404,-47.602 146.389,-56.324 156.53,-53.2565 152.404,-47.602"/>
</g>
<!-- Node1 -->
<g id="node2" class="node"><title>Node1</title>
<g id="a_node2"><a xlink:href="classfrost_1_1Animator_1_1DisplayItem.html" target="_top" xlink:title="Abstract class for items in frost.Animator.Display. ">
<polygon fill="white" stroke="black" points="64.5,-112.5 64.5,-131.5 204.5,-131.5 204.5,-112.5 64.5,-112.5"/>
<text text-anchor="middle" x="134.5" y="-119.5" font-family="Helvetica,sans-Serif" font-size="10.00">frost::Animator::DisplayItem</text>
</a>
</g>
</g>
<!-- Node1&#45;&gt;Node0 -->
<g id="edge1" class="edge"><title>Node1&#45;&gt;Node0</title>
<path fill="none" stroke="midnightblue" d="M134.5,-101.805C134.5,-92.9102 134.5,-82.7798 134.5,-75.7511"/>
<polygon fill="midnightblue" stroke="midnightblue" points="131,-102.083 134.5,-112.083 138,-102.083 131,-102.083"/>
</g>
<!-- Node2 -->
<g id="node3" class="node"><title>Node2</title>
<g id="a_node3"><a xlink:href="classhandle.html" target="_top" xlink:title="Matlab&#39;s base handle class (documentation generation substitute) ">
<polygon fill="white" stroke="black" points="112,-168.5 112,-187.5 157,-187.5 157,-168.5 112,-168.5"/>
<text text-anchor="middle" x="134.5" y="-175.5" font-family="Helvetica,sans-Serif" font-size="10.00">handle</text>
</a>
</g>
</g>
<!-- Node2&#45;&gt;Node1 -->
<g id="edge2" class="edge"><title>Node2&#45;&gt;Node1</title>
<path fill="none" stroke="midnightblue" d="M134.5,-157.805C134.5,-148.91 134.5,-138.78 134.5,-131.751"/>
<polygon fill="midnightblue" stroke="midnightblue" points="131,-158.083 134.5,-168.083 138,-158.083 131,-158.083"/>
</g>
</g>
</svg>
