<?xml version="1.0" encoding="UTF-8" standalone="no"?>
<!DOCTYPE svg PUBLIC "-//W3C//DTD SVG 1.1//EN"
 "http://www.w3.org/Graphics/SVG/1.1/DTD/svg11.dtd">
<!-- Generated by graphviz version 2.38.0 (20140413.2041)
 -->
<!-- Title: DynamicalSystem Pages: 1 -->
<svg width="234pt" height="196pt"
 viewBox="0.00 0.00 234.00 196.00" xmlns="http://www.w3.org/2000/svg" xmlns:xlink="http://www.w3.org/1999/xlink">
<g id="graph0" class="graph" transform="scale(1 1) rotate(0) translate(4 192)">
<title>DynamicalSystem</title>
<polygon fill="white" stroke="none" points="-4,4 -4,-192 230,-192 230,4 -4,4"/>
<!-- Node0 -->
<g id="node1" class="node"><title>Node0</title>
<polygon fill="#bfbfbf" stroke="black" points="67.5,-112.5 67.5,-131.5 164.5,-131.5 164.5,-112.5 67.5,-112.5"/>
<text text-anchor="middle" x="116" y="-119.5" font-family="Helvetica,sans-Serif" font-size="10.00">DynamicalSystem</text>
</g>
<!-- Node3 -->
<g id="node4" class="node"><title>Node3</title>
<g id="a_node4"><a xlink:href="classContinuousDynamics.html" target="_top" xlink:title="Continuous state dynamic system governed by differential equations. ">
<polygon fill="white" stroke="black" points="0,-56.5 0,-75.5 110,-75.5 110,-56.5 0,-56.5"/>
<text text-anchor="middle" x="55" y="-63.5" font-family="Helvetica,sans-Serif" font-size="10.00">ContinuousDynamics</text>
</a>
</g>
</g>
<!-- Node0&#45;&gt;Node3 -->
<g id="edge3" class="edge"><title>Node0&#45;&gt;Node3</title>
<path fill="none" stroke="midnightblue" d="M98.5328,-105.537C87.6562,-95.9087 74.0561,-83.8694 64.979,-75.8339"/>
<polygon fill="midnightblue" stroke="midnightblue" points="96.3917,-108.316 106.199,-112.324 101.032,-103.075 96.3917,-108.316"/>
</g>
<!-- Node5 -->
<g id="node6" class="node"><title>Node5</title>
<g id="a_node6"><a xlink:href="classDiscreteDynamics.html" target="_top" xlink:title="Discrete event dynamic system governed by discrete transition map and triggered by discrete events...">
<polygon fill="white" stroke="black" points="128,-56.5 128,-75.5 226,-75.5 226,-56.5 128,-56.5"/>
<text text-anchor="middle" x="177" y="-63.5" font-family="Helvetica,sans-Serif" font-size="10.00">DiscreteDynamics</text>
</a>
</g>
</g>
<!-- Node0&#45;&gt;Node5 -->
<g id="edge5" class="edge"><title>Node0&#45;&gt;Node5</title>
<path fill="none" stroke="midnightblue" d="M133.467,-105.537C144.344,-95.9087 157.944,-83.8694 167.021,-75.8339"/>
<polygon fill="midnightblue" stroke="midnightblue" points="130.968,-103.075 125.801,-112.324 135.608,-108.316 130.968,-103.075"/>
</g>
<!-- Node1 -->
<g id="node2" class="node"><title>Node1</title>
<g id="a_node2"><a xlink:href="classhandle.html" target="_top" xlink:title="Matlab&#39;s base handle class (documentation generation substitute) ">
<polygon fill="white" stroke="black" points="58.5,-168.5 58.5,-187.5 103.5,-187.5 103.5,-168.5 58.5,-168.5"/>
<text text-anchor="middle" x="81" y="-175.5" font-family="Helvetica,sans-Serif" font-size="10.00">handle</text>
</a>
</g>
</g>
<!-- Node1&#45;&gt;Node0 -->
<g id="edge1" class="edge"><title>Node1&#45;&gt;Node0</title>
<path fill="none" stroke="midnightblue" d="M92.3001,-159.566C98.3219,-150.275 105.469,-139.248 110.328,-131.751"/>
<polygon fill="midnightblue" stroke="midnightblue" points="89.2815,-157.788 86.7795,-168.083 95.1556,-161.595 89.2815,-157.788"/>
</g>
<!-- Node2 -->
<g id="node3" class="node"><title>Node2</title>
<polygon fill="white" stroke="#bfbfbf" points="122,-168.5 122,-187.5 180,-187.5 180,-168.5 122,-168.5"/>
<text text-anchor="middle" x="151" y="-175.5" font-family="Helvetica,sans-Serif" font-size="10.00">Copyable</text>
</g>
<!-- Node2&#45;&gt;Node0 -->
<g id="edge2" class="edge"><title>Node2&#45;&gt;Node0</title>
<path fill="none" stroke="midnightblue" d="M139.7,-159.566C133.678,-150.275 126.531,-139.248 121.672,-131.751"/>
<polygon fill="midnightblue" stroke="midnightblue" points="136.844,-161.595 145.22,-168.083 142.719,-157.788 136.844,-161.595"/>
</g>
<!-- Node4 -->
<g id="node5" class="node"><title>Node4</title>
<g id="a_node5"><a xlink:href="classRobotLinks.html" target="_top" xlink:title="A class with basic model descriptions and functionalities of the multi&#45;link rigid&#45;body robot platform...">
<polygon fill="white" stroke="black" points="22,-0.5 22,-19.5 88,-19.5 88,-0.5 22,-0.5"/>
<text text-anchor="middle" x="55" y="-7.5" font-family="Helvetica,sans-Serif" font-size="10.00">RobotLinks</text>
</a>
</g>
</g>
<!-- Node3&#45;&gt;Node4 -->
<g id="edge4" class="edge"><title>Node3&#45;&gt;Node4</title>
<path fill="none" stroke="midnightblue" d="M55,-45.8045C55,-36.9102 55,-26.7798 55,-19.7511"/>
<polygon fill="midnightblue" stroke="midnightblue" points="51.5001,-46.083 55,-56.083 58.5001,-46.083 51.5001,-46.083"/>
</g>
<!-- Node6 -->
<g id="node7" class="node"><title>Node6</title>
<g id="a_node7"><a xlink:href="classRigidImpact.html" target="_top" xlink:title="RigidImpact represents a rigid body impact map assuming that the impact is plastic and occurs instant...">
<polygon fill="white" stroke="black" points="142.5,-0.5 142.5,-19.5 211.5,-19.5 211.5,-0.5 142.5,-0.5"/>
<text text-anchor="middle" x="177" y="-7.5" font-family="Helvetica,sans-Serif" font-size="10.00">RigidImpact</text>
</a>
</g>
</g>
<!-- Node5&#45;&gt;Node6 -->
<g id="edge6" class="edge"><title>Node5&#45;&gt;Node6</title>
<path fill="none" stroke="midnightblue" d="M177,-45.8045C177,-36.9102 177,-26.7798 177,-19.7511"/>
<polygon fill="midnightblue" stroke="midnightblue" points="173.5,-46.083 177,-56.083 180.5,-46.083 173.5,-46.083"/>
</g>
</g>
</svg>
