<?xml version="1.0" encoding="UTF-8" standalone="no"?>
<!DOCTYPE svg PUBLIC "-//W3C//DTD SVG 1.1//EN"
 "http://www.w3.org/Graphics/SVG/1.1/DTD/svg11.dtd">
<!-- Generated by graphviz version 2.38.0 (20140413.2041)
 -->
<!-- Title: RigidImpact Pages: 1 -->
<svg width="130pt" height="196pt"
 viewBox="0.00 0.00 129.50 196.00" xmlns="http://www.w3.org/2000/svg" xmlns:xlink="http://www.w3.org/1999/xlink">
<g id="graph0" class="graph" transform="scale(1 1) rotate(0) translate(4 192)">
<title>RigidImpact</title>
<polygon fill="white" stroke="none" points="-4,4 -4,-192 125.5,-192 125.5,4 -4,4"/>
<!-- Node0 -->
<g id="node1" class="node"><title>Node0</title>
<polygon fill="#bfbfbf" stroke="black" points="23,-0.5 23,-19.5 92,-19.5 92,-0.5 23,-0.5"/>
<text text-anchor="middle" x="57.5" y="-7.5" font-family="Helvetica,sans-Serif" font-size="10.00">RigidImpact</text>
</g>
<!-- Node1 -->
<g id="node2" class="node"><title>Node1</title>
<g id="a_node2"><a xlink:href="classDiscreteDynamics.html" target="_top" xlink:title="Discrete event dynamic system governed by discrete transition map and triggered by discrete events...">
<polygon fill="white" stroke="black" points="8.5,-56.5 8.5,-75.5 106.5,-75.5 106.5,-56.5 8.5,-56.5"/>
<text text-anchor="middle" x="57.5" y="-63.5" font-family="Helvetica,sans-Serif" font-size="10.00">DiscreteDynamics</text>
</a>
</g>
</g>
<!-- Node1&#45;&gt;Node0 -->
<g id="edge1" class="edge"><title>Node1&#45;&gt;Node0</title>
<path fill="none" stroke="midnightblue" d="M57.5,-45.8045C57.5,-36.9102 57.5,-26.7798 57.5,-19.7511"/>
<polygon fill="midnightblue" stroke="midnightblue" points="54.0001,-46.083 57.5,-56.083 61.0001,-46.083 54.0001,-46.083"/>
</g>
<!-- Node2 -->
<g id="node3" class="node"><title>Node2</title>
<g id="a_node3"><a xlink:href="classDynamicalSystem.html" target="_top" xlink:title="A superclass for continuous/discrete dynamic systems. ">
<polygon fill="white" stroke="black" points="9,-112.5 9,-131.5 106,-131.5 106,-112.5 9,-112.5"/>
<text text-anchor="middle" x="57.5" y="-119.5" font-family="Helvetica,sans-Serif" font-size="10.00">DynamicalSystem</text>
</a>
</g>
</g>
<!-- Node2&#45;&gt;Node1 -->
<g id="edge2" class="edge"><title>Node2&#45;&gt;Node1</title>
<path fill="none" stroke="midnightblue" d="M57.5,-101.805C57.5,-92.9102 57.5,-82.7798 57.5,-75.7511"/>
<polygon fill="midnightblue" stroke="midnightblue" points="54.0001,-102.083 57.5,-112.083 61.0001,-102.083 54.0001,-102.083"/>
</g>
<!-- Node3 -->
<g id="node4" class="node"><title>Node3</title>
<g id="a_node4"><a xlink:href="classhandle.html" target="_top" xlink:title="Matlab&#39;s base handle class (documentation generation substitute) ">
<polygon fill="white" stroke="black" points="0,-168.5 0,-187.5 45,-187.5 45,-168.5 0,-168.5"/>
<text text-anchor="middle" x="22.5" y="-175.5" font-family="Helvetica,sans-Serif" font-size="10.00">handle</text>
</a>
</g>
</g>
<!-- Node3&#45;&gt;Node2 -->
<g id="edge3" class="edge"><title>Node3&#45;&gt;Node2</title>
<path fill="none" stroke="midnightblue" d="M33.8001,-159.566C39.8219,-150.275 46.9686,-139.248 51.828,-131.751"/>
<polygon fill="midnightblue" stroke="midnightblue" points="30.7815,-157.788 28.2795,-168.083 36.6556,-161.595 30.7815,-157.788"/>
</g>
<!-- Node4 -->
<g id="node5" class="node"><title>Node4</title>
<polygon fill="white" stroke="#bfbfbf" points="63.5,-168.5 63.5,-187.5 121.5,-187.5 121.5,-168.5 63.5,-168.5"/>
<text text-anchor="middle" x="92.5" y="-175.5" font-family="Helvetica,sans-Serif" font-size="10.00">Copyable</text>
</g>
<!-- Node4&#45;&gt;Node2 -->
<g id="edge4" class="edge"><title>Node4&#45;&gt;Node2</title>
<path fill="none" stroke="midnightblue" d="M81.1999,-159.566C75.1781,-150.275 68.0314,-139.248 63.172,-131.751"/>
<polygon fill="midnightblue" stroke="midnightblue" points="78.3444,-161.595 86.7205,-168.083 84.2185,-157.788 78.3444,-161.595"/>
</g>
</g>
</svg>
