<?xml version="1.0" encoding="UTF-8" standalone="no"?>
<!DOCTYPE svg PUBLIC "-//W3C//DTD SVG 1.1//EN"
 "http://www.w3.org/Graphics/SVG/1.1/DTD/svg11.dtd">
<!-- Generated by graphviz version 2.38.0 (20140413.2041)
 -->
<!-- Title: handle Pages: 1 -->
<svg width="583pt" height="769pt"
 viewBox="0.00 0.00 583.00 769.00" xmlns="http://www.w3.org/2000/svg" xmlns:xlink="http://www.w3.org/1999/xlink">
<g id="graph0" class="graph" transform="scale(1 1) rotate(0) translate(4 765)">
<title>handle</title>
<polygon fill="white" stroke="none" points="-4,4 -4,-765 579,-765 579,4 -4,4"/>
<!-- Node0 -->
<g id="node1" class="node"><title>Node0</title>
<polygon fill="#bfbfbf" stroke="black" points="0,-285.5 0,-304.5 45,-304.5 45,-285.5 0,-285.5"/>
<text text-anchor="middle" x="22.5" y="-292.5" font-family="Helvetica,sans-Serif" font-size="10.00">handle</text>
</g>
<!-- Node1 -->
<g id="node2" class="node"><title>Node1</title>
<g id="a_node2"><a xlink:href="classController.html" target="_top" xlink:title="This abstract class defines interfaces to configuration and functionalities of different types of con...">
<polygon fill="white" stroke="black" points="121.5,-665.5 121.5,-684.5 180.5,-684.5 180.5,-665.5 121.5,-665.5"/>
<text text-anchor="middle" x="151" y="-672.5" font-family="Helvetica,sans-Serif" font-size="10.00">Controller</text>
</a>
</g>
</g>
<!-- Node0&#45;&gt;Node1 -->
<g id="edge1" class="edge"><title>Node0&#45;&gt;Node1</title>
<path fill="none" stroke="midnightblue" d="M24.5879,-314.679C27.8171,-362.211 39.86,-486.276 81,-580 96.2392,-614.717 125.759,-649.136 140.763,-665.363"/>
<polygon fill="midnightblue" stroke="midnightblue" points="28.0715,-314.305 23.9575,-304.542 21.085,-314.74 28.0715,-314.305"/>
</g>
<!-- Node6 -->
<g id="node7" class="node"><title>Node6</title>
<g id="a_node7"><a xlink:href="classCoordinateFrame.html" target="_top" xlink:title="A kinematic coordinate frame class. ">
<polygon fill="white" stroke="black" points="105,-551.5 105,-570.5 197,-570.5 197,-551.5 105,-551.5"/>
<text text-anchor="middle" x="151" y="-558.5" font-family="Helvetica,sans-Serif" font-size="10.00">CoordinateFrame</text>
</a>
</g>
</g>
<!-- Node0&#45;&gt;Node6 -->
<g id="edge6" class="edge"><title>Node0&#45;&gt;Node6</title>
<path fill="none" stroke="midnightblue" d="M23.4148,-315.044C24.2385,-357.757 31.6552,-459.054 81,-523 91.1092,-536.101 107.077,-545.306 121.107,-551.372"/>
<polygon fill="midnightblue" stroke="midnightblue" points="26.9131,-314.816 23.3273,-304.847 19.9133,-314.876 26.9131,-314.816"/>
</g>
<!-- Node9 -->
<g id="node10" class="node"><title>Node9</title>
<g id="a_node10"><a xlink:href="classDynamicalSystem.html" target="_top" xlink:title="A superclass for continuous/discrete dynamic systems. ">
<polygon fill="white" stroke="black" points="102.5,-494.5 102.5,-513.5 199.5,-513.5 199.5,-494.5 102.5,-494.5"/>
<text text-anchor="middle" x="151" y="-501.5" font-family="Helvetica,sans-Serif" font-size="10.00">DynamicalSystem</text>
</a>
</g>
</g>
<!-- Node0&#45;&gt;Node9 -->
<g id="edge9" class="edge"><title>Node0&#45;&gt;Node9</title>
<path fill="none" stroke="midnightblue" d="M23.5625,-314.859C24.7983,-353.332 33.1476,-438.337 81,-485 86.9601,-490.812 94.5267,-494.883 102.451,-497.727"/>
<polygon fill="midnightblue" stroke="midnightblue" points="27.0555,-314.44 23.3715,-304.507 20.0567,-314.569 27.0555,-314.44"/>
</g>
<!-- Node14 -->
<g id="node15" class="node"><title>Node14</title>
<g id="a_node15"><a xlink:href="classfrost_1_1Animator_1_1Display.html" target="_top" xlink:title="Creates a figure depicting a model. ">
<polygon fill="white" stroke="black" points="91,-456.5 91,-475.5 211,-475.5 211,-456.5 91,-456.5"/>
<text text-anchor="middle" x="151" y="-463.5" font-family="Helvetica,sans-Serif" font-size="10.00">frost::Animator::Display</text>
</a>
</g>
</g>
<!-- Node0&#45;&gt;Node14 -->
<g id="edge14" class="edge"><title>Node0&#45;&gt;Node14</title>
<path fill="none" stroke="midnightblue" d="M25.3412,-314.919C29.4235,-347.389 42.1956,-411.645 81,-447 85.2249,-450.849 90.1593,-453.929 95.4118,-456.391"/>
<polygon fill="midnightblue" stroke="midnightblue" points="28.8069,-314.415 24.2312,-304.859 21.8491,-315.182 28.8069,-314.415"/>
</g>
<!-- Node15 -->
<g id="node16" class="node"><title>Node15</title>
<g id="a_node16"><a xlink:href="classfrost_1_1Animator_1_1DisplayItem.html" target="_top" xlink:title="Abstract class for items in frost.Animator.Display. ">
<polygon fill="white" stroke="black" points="81,-418.5 81,-437.5 221,-437.5 221,-418.5 81,-418.5"/>
<text text-anchor="middle" x="151" y="-425.5" font-family="Helvetica,sans-Serif" font-size="10.00">frost::Animator::DisplayItem</text>
</a>
</g>
</g>
<!-- Node0&#45;&gt;Node15 -->
<g id="edge15" class="edge"><title>Node0&#45;&gt;Node15</title>
<path fill="none" stroke="midnightblue" d="M28.1021,-314.595C35.1218,-340.129 50.9724,-384.41 81,-409 85.7103,-412.857 91.1454,-415.934 96.8552,-418.388"/>
<polygon fill="midnightblue" stroke="midnightblue" points="31.4183,-313.436 25.5485,-304.616 24.6368,-315.171 31.4183,-313.436"/>
</g>
<!-- Node24 -->
<g id="node25" class="node"><title>Node24</title>
<g id="a_node25"><a xlink:href="classHolonomicConstraint.html" target="_top" xlink:title="HolonomicConstraint: represents a group of holonomic constraints of a dynamical systems. ">
<polygon fill="white" stroke="black" points="97,-380.5 97,-399.5 205,-399.5 205,-380.5 97,-380.5"/>
<text text-anchor="middle" x="151" y="-387.5" font-family="Helvetica,sans-Serif" font-size="10.00">HolonomicConstraint</text>
</a>
</g>
</g>
<!-- Node0&#45;&gt;Node24 -->
<g id="edge24" class="edge"><title>Node0&#45;&gt;Node24</title>
<path fill="none" stroke="midnightblue" d="M32.972,-313.714C42.712,-331.089 59.4797,-356.406 81,-371 86.7588,-374.905 93.2998,-378.011 100.005,-380.48"/>
<polygon fill="midnightblue" stroke="midnightblue" points="35.8693,-311.71 28.0665,-304.543 29.6968,-315.012 35.8693,-311.71"/>
</g>
<!-- Node25 -->
<g id="node26" class="node"><title>Node25</title>
<g id="a_node26"><a xlink:href="classHybridSystem.html" target="_top" xlink:title="HybridSystem defines a hybrid dynamical system that has both continuous and discrete dynamics...">
<polygon fill="white" stroke="black" points="111.5,-342.5 111.5,-361.5 190.5,-361.5 190.5,-342.5 111.5,-342.5"/>
<text text-anchor="middle" x="151" y="-349.5" font-family="Helvetica,sans-Serif" font-size="10.00">HybridSystem</text>
</a>
</g>
</g>
<!-- Node0&#45;&gt;Node25 -->
<g id="edge25" class="edge"><title>Node0&#45;&gt;Node25</title>
<path fill="none" stroke="midnightblue" d="M43.79,-310.692C54.4051,-318.296 67.8925,-327.047 81,-333 90.5028,-337.316 101.198,-340.845 111.281,-343.64"/>
<polygon fill="midnightblue" stroke="midnightblue" points="45.7443,-307.784 35.6203,-304.661 41.587,-313.416 45.7443,-307.784"/>
</g>
<!-- Node26 -->
<g id="node27" class="node"><title>Node26</title>
<g id="a_node27"><a xlink:href="classNlpFunction.html" target="_top" xlink:title="This class provides a data structure for a optimization function. This function could be either a con...">
<polygon fill="white" stroke="black" points="116.5,-304.5 116.5,-323.5 185.5,-323.5 185.5,-304.5 116.5,-304.5"/>
<text text-anchor="middle" x="151" y="-311.5" font-family="Helvetica,sans-Serif" font-size="10.00">NlpFunction</text>
</a>
</g>
</g>
<!-- Node0&#45;&gt;Node26 -->
<g id="edge26" class="edge"><title>Node0&#45;&gt;Node26</title>
<path fill="none" stroke="midnightblue" d="M55.2737,-299.772C73.8414,-302.561 97.2661,-306.079 116.176,-308.92"/>
<polygon fill="midnightblue" stroke="midnightblue" points="55.6551,-296.29 45.2461,-298.266 54.6153,-303.213 55.6551,-296.29"/>
</g>
<!-- Node27 -->
<g id="node28" class="node"><title>Node27</title>
<g id="a_node28"><a xlink:href="classNlpVariable.html" target="_top" xlink:title="This class provides a data structure for NLP optimization variables. ">
<polygon fill="white" stroke="black" points="117.5,-266.5 117.5,-285.5 184.5,-285.5 184.5,-266.5 117.5,-266.5"/>
<text text-anchor="middle" x="151" y="-273.5" font-family="Helvetica,sans-Serif" font-size="10.00">NlpVariable</text>
</a>
</g>
</g>
<!-- Node0&#45;&gt;Node27 -->
<g id="edge27" class="edge"><title>Node0&#45;&gt;Node27</title>
<path fill="none" stroke="midnightblue" d="M55.1648,-290.244C74.0698,-287.405 98.0394,-283.804 117.151,-280.934"/>
<polygon fill="midnightblue" stroke="midnightblue" points="54.6153,-286.787 45.2461,-291.734 55.6551,-293.71 54.6153,-286.787"/>
</g>
<!-- Node28 -->
<g id="node29" class="node"><title>Node28</title>
<g id="a_node29"><a xlink:href="classNonlinearProgram.html" target="_top" xlink:title="NonlinearProgram defines an abstract class for general nonlinear programing problems. ">
<polygon fill="white" stroke="black" points="103.5,-228.5 103.5,-247.5 198.5,-247.5 198.5,-228.5 103.5,-228.5"/>
<text text-anchor="middle" x="151" y="-235.5" font-family="Helvetica,sans-Serif" font-size="10.00">NonlinearProgram</text>
</a>
</g>
</g>
<!-- Node0&#45;&gt;Node28 -->
<g id="edge28" class="edge"><title>Node0&#45;&gt;Node28</title>
<path fill="none" stroke="midnightblue" d="M43.79,-279.308C54.4051,-271.704 67.8925,-262.953 81,-257 89.1452,-253.3 98.1668,-250.179 106.927,-247.603"/>
<polygon fill="midnightblue" stroke="midnightblue" points="41.587,-276.584 35.6203,-285.339 45.7443,-282.216 41.587,-276.584"/>
</g>
<!-- Node31 -->
<g id="node32" class="node"><title>Node31</title>
<g id="a_node32"><a xlink:href="classRef.html" target="_top" xlink:title="Ref">
<polygon fill="white" stroke="black" points="135,-190.5 135,-209.5 167,-209.5 167,-190.5 135,-190.5"/>
<text text-anchor="middle" x="151" y="-197.5" font-family="Helvetica,sans-Serif" font-size="10.00">Ref</text>
</a>
</g>
</g>
<!-- Node0&#45;&gt;Node31 -->
<g id="edge31" class="edge"><title>Node0&#45;&gt;Node31</title>
<path fill="none" stroke="midnightblue" d="M32.972,-276.286C42.712,-258.911 59.4797,-233.594 81,-219 97.3508,-207.912 120.008,-203.268 134.831,-201.341"/>
<polygon fill="midnightblue" stroke="midnightblue" points="29.6968,-274.988 28.0665,-285.457 35.8693,-278.29 29.6968,-274.988"/>
</g>
<!-- Node32 -->
<g id="node33" class="node"><title>Node32</title>
<g id="a_node33"><a xlink:href="classSimLogger.html" target="_top" xlink:title="A class for logging the internal data over time during a ODE simulation process. ">
<polygon fill="white" stroke="black" points="119.5,-152.5 119.5,-171.5 182.5,-171.5 182.5,-152.5 119.5,-152.5"/>
<text text-anchor="middle" x="151" y="-159.5" font-family="Helvetica,sans-Serif" font-size="10.00">SimLogger</text>
</a>
</g>
</g>
<!-- Node0&#45;&gt;Node32 -->
<g id="edge32" class="edge"><title>Node0&#45;&gt;Node32</title>
<path fill="none" stroke="midnightblue" d="M28.1021,-275.405C35.1218,-249.871 50.9724,-205.59 81,-181 91.7665,-172.183 106.319,-167.444 119.285,-164.903"/>
<polygon fill="midnightblue" stroke="midnightblue" points="24.6368,-274.829 25.5485,-285.384 31.4183,-276.564 24.6368,-274.829"/>
</g>
<!-- Node33 -->
<g id="node34" class="node"><title>Node33</title>
<g id="a_node34"><a xlink:href="classSolverApplication.html" target="_top" xlink:title="SolverApplication defines an abstract interface class for NLP solvers. ">
<polygon fill="white" stroke="black" points="105,-114.5 105,-133.5 197,-133.5 197,-114.5 105,-114.5"/>
<text text-anchor="middle" x="151" y="-121.5" font-family="Helvetica,sans-Serif" font-size="10.00">SolverApplication</text>
</a>
</g>
</g>
<!-- Node0&#45;&gt;Node33 -->
<g id="edge33" class="edge"><title>Node0&#45;&gt;Node33</title>
<path fill="none" stroke="midnightblue" d="M25.3412,-275.081C29.4235,-242.611 42.1956,-178.355 81,-143 87.7047,-136.891 96.1963,-132.721 104.91,-129.881"/>
<polygon fill="midnightblue" stroke="midnightblue" points="21.8491,-274.818 24.2312,-285.141 28.8069,-275.585 21.8491,-274.818"/>
</g>
<!-- Node35 -->
<g id="node36" class="node"><title>Node35</title>
<g id="a_node36"><a xlink:href="classSymExpression.html" target="_top" xlink:title="An object that represents a symbolic expression in Mathematica. ">
<polygon fill="white" stroke="black" points="108,-76.5 108,-95.5 194,-95.5 194,-76.5 108,-76.5"/>
<text text-anchor="middle" x="151" y="-83.5" font-family="Helvetica,sans-Serif" font-size="10.00">SymExpression</text>
</a>
</g>
</g>
<!-- Node0&#45;&gt;Node35 -->
<g id="edge35" class="edge"><title>Node0&#45;&gt;Node35</title>
<path fill="none" stroke="midnightblue" d="M23.5625,-275.141C24.7983,-236.668 33.1476,-151.663 81,-105 88.2945,-97.8868 97.9953,-93.3812 107.813,-90.5423"/>
<polygon fill="midnightblue" stroke="midnightblue" points="20.0567,-275.431 23.3715,-285.493 27.0555,-275.56 20.0567,-275.431"/>
</g>
<!-- Node38 -->
<g id="node39" class="node"><title>Node38</title>
<g id="a_node39"><a xlink:href="classUnilateralConstraint.html" target="_top" xlink:title="UnilateralConstraint represents a scalar or vector inequality constraints should be imposed on the co...">
<polygon fill="white" stroke="black" points="99.5,-38.5 99.5,-57.5 202.5,-57.5 202.5,-38.5 99.5,-38.5"/>
<text text-anchor="middle" x="151" y="-45.5" font-family="Helvetica,sans-Serif" font-size="10.00">UnilateralConstraint</text>
</a>
</g>
</g>
<!-- Node0&#45;&gt;Node38 -->
<g id="edge38" class="edge"><title>Node0&#45;&gt;Node38</title>
<path fill="none" stroke="midnightblue" d="M25.9057,-275.378C32.375,-225.738 51.6641,-96.9783 81,-67 86.1272,-61.7605 92.5561,-57.9269 99.4143,-55.1295"/>
<polygon fill="midnightblue" stroke="midnightblue" points="22.4139,-275.093 24.6286,-285.454 29.3583,-275.974 22.4139,-275.093"/>
</g>
<!-- Node39 -->
<g id="node40" class="node"><title>Node39</title>
<g id="a_node40"><a xlink:href="classVirtualConstraint.html" target="_top" xlink:title="VirtualConstraint: represents a group of virtual constraints of a dynamical systems. ">
<polygon fill="white" stroke="black" points="106.5,-0.5 106.5,-19.5 195.5,-19.5 195.5,-0.5 106.5,-0.5"/>
<text text-anchor="middle" x="151" y="-7.5" font-family="Helvetica,sans-Serif" font-size="10.00">VirtualConstraint</text>
</a>
</g>
</g>
<!-- Node0&#45;&gt;Node39 -->
<g id="edge39" class="edge"><title>Node0&#45;&gt;Node39</title>
<path fill="none" stroke="midnightblue" d="M25.1633,-275.121C30.1984,-219.651 47.0553,-64.8942 81,-29 87.7444,-21.8682 96.8972,-17.3287 106.33,-14.4607"/>
<polygon fill="midnightblue" stroke="midnightblue" points="21.6514,-275.106 24.2664,-285.373 28.6247,-275.716 21.6514,-275.106"/>
</g>
<!-- Node2 -->
<g id="node3" class="node"><title>Node2</title>
<g id="a_node3"><a xlink:href="classCLFQP.html" target="_top" xlink:title="This class defines a class of Control Lyapunov Functions (CLFs) that use quadratic programming (QP) ...">
<polygon fill="white" stroke="black" points="303.5,-741.5 303.5,-760.5 353.5,-760.5 353.5,-741.5 303.5,-741.5"/>
<text text-anchor="middle" x="328.5" y="-748.5" font-family="Helvetica,sans-Serif" font-size="10.00">CLFQP</text>
</a>
</g>
</g>
<!-- Node1&#45;&gt;Node2 -->
<g id="edge2" class="edge"><title>Node1&#45;&gt;Node2</title>
<path fill="none" stroke="midnightblue" d="M175.87,-690.061C196.657,-702.658 227.938,-720.382 257,-732 271.949,-737.976 289.416,-742.699 303.224,-745.941"/>
<polygon fill="midnightblue" stroke="midnightblue" points="177.455,-686.927 167.102,-684.675 173.791,-692.892 177.455,-686.927"/>
</g>
<!-- Node3 -->
<g id="node4" class="node"><title>Node3</title>
<g id="a_node4"><a xlink:href="classIOFeedback.html" target="_top" xlink:title="This class defines the classic input&#45;output feedback linearization controller. ">
<polygon fill="white" stroke="black" points="293.5,-703.5 293.5,-722.5 363.5,-722.5 363.5,-703.5 293.5,-703.5"/>
<text text-anchor="middle" x="328.5" y="-710.5" font-family="Helvetica,sans-Serif" font-size="10.00">IOFeedback</text>
</a>
</g>
</g>
<!-- Node1&#45;&gt;Node3 -->
<g id="edge3" class="edge"><title>Node1&#45;&gt;Node3</title>
<path fill="none" stroke="midnightblue" d="M190.496,-683.335C221.16,-689.975 263.693,-699.184 293.2,-705.573"/>
<polygon fill="midnightblue" stroke="midnightblue" points="191.102,-679.885 180.588,-681.19 189.621,-686.727 191.102,-679.885"/>
</g>
<!-- Node4 -->
<g id="node5" class="node"><title>Node4</title>
<g id="a_node5"><a xlink:href="classJointPD.html" target="_top" xlink:title="This class defines a PD feedback control on the joint space. ">
<polygon fill="white" stroke="black" points="302.5,-665.5 302.5,-684.5 354.5,-684.5 354.5,-665.5 302.5,-665.5"/>
<text text-anchor="middle" x="328.5" y="-672.5" font-family="Helvetica,sans-Serif" font-size="10.00">JointPD</text>
</a>
</g>
</g>
<!-- Node1&#45;&gt;Node4 -->
<g id="edge4" class="edge"><title>Node1&#45;&gt;Node4</title>
<path fill="none" stroke="midnightblue" d="M190.635,-675C224.63,-675 273.133,-675 302.341,-675"/>
<polygon fill="midnightblue" stroke="midnightblue" points="190.588,-671.5 180.588,-675 190.588,-678.5 190.588,-671.5"/>
</g>
<!-- Node5 -->
<g id="node6" class="node"><title>Node5</title>
<g id="a_node6"><a xlink:href="classOutputPD.html" target="_top" xlink:title="This class defines the PD controller for system outputs. ">
<polygon fill="white" stroke="black" points="298.5,-627.5 298.5,-646.5 358.5,-646.5 358.5,-627.5 298.5,-627.5"/>
<text text-anchor="middle" x="328.5" y="-634.5" font-family="Helvetica,sans-Serif" font-size="10.00">OutputPD</text>
</a>
</g>
</g>
<!-- Node1&#45;&gt;Node5 -->
<g id="edge5" class="edge"><title>Node1&#45;&gt;Node5</title>
<path fill="none" stroke="midnightblue" d="M190.632,-666.635C223.119,-659.601 268.854,-649.698 298.34,-643.314"/>
<polygon fill="midnightblue" stroke="midnightblue" points="189.621,-663.273 180.588,-668.81 191.102,-670.115 189.621,-663.273"/>
</g>
<!-- Node7 -->
<g id="node8" class="node"><title>Node7</title>
<g id="a_node8"><a xlink:href="classRigidBody.html" target="_top" xlink:title="A coordinate frame that is rigidly attached to the CoM position of a rigid link. In addition...">
<polygon fill="white" stroke="black" points="297.5,-589.5 297.5,-608.5 359.5,-608.5 359.5,-589.5 297.5,-589.5"/>
<text text-anchor="middle" x="328.5" y="-596.5" font-family="Helvetica,sans-Serif" font-size="10.00">RigidBody</text>
</a>
</g>
</g>
<!-- Node6&#45;&gt;Node7 -->
<g id="edge7" class="edge"><title>Node6&#45;&gt;Node7</title>
<path fill="none" stroke="midnightblue" d="M206.194,-572.734C236.179,-579.227 272.319,-587.052 297.312,-592.464"/>
<polygon fill="midnightblue" stroke="midnightblue" points="206.8,-569.285 196.286,-570.589 205.319,-576.126 206.8,-569.285"/>
</g>
<!-- Node8 -->
<g id="node9" class="node"><title>Node8</title>
<g id="a_node9"><a xlink:href="classRigidJoint.html" target="_top" xlink:title="A coordinate frame that is rigidly attached to the origin a rigid joint and the child link of the joi...">
<polygon fill="white" stroke="black" points="298.5,-551.5 298.5,-570.5 358.5,-570.5 358.5,-551.5 298.5,-551.5"/>
<text text-anchor="middle" x="328.5" y="-558.5" font-family="Helvetica,sans-Serif" font-size="10.00">RigidJoint</text>
</a>
</g>
</g>
<!-- Node6&#45;&gt;Node8 -->
<g id="edge8" class="edge"><title>Node6&#45;&gt;Node8</title>
<path fill="none" stroke="midnightblue" d="M207.588,-561C237.741,-561 273.775,-561 298.418,-561"/>
<polygon fill="midnightblue" stroke="midnightblue" points="207.196,-557.5 197.196,-561 207.196,-564.5 207.196,-557.5"/>
</g>
<!-- Node10 -->
<g id="node11" class="node"><title>Node10</title>
<g id="a_node11"><a xlink:href="classContinuousDynamics.html" target="_top" xlink:title="Continuous state dynamic system governed by differential equations. ">
<polygon fill="white" stroke="black" points="273.5,-513.5 273.5,-532.5 383.5,-532.5 383.5,-513.5 273.5,-513.5"/>
<text text-anchor="middle" x="328.5" y="-520.5" font-family="Helvetica,sans-Serif" font-size="10.00">ContinuousDynamics</text>
</a>
</g>
</g>
<!-- Node9&#45;&gt;Node10 -->
<g id="edge10" class="edge"><title>Node9&#45;&gt;Node10</title>
<path fill="none" stroke="midnightblue" d="M210.071,-510.287C230.489,-512.497 253.336,-514.971 273.412,-517.144"/>
<polygon fill="midnightblue" stroke="midnightblue" points="210.275,-506.789 199.956,-509.192 209.521,-513.748 210.275,-506.789"/>
</g>
<!-- Node12 -->
<g id="node13" class="node"><title>Node12</title>
<g id="a_node13"><a xlink:href="classDiscreteDynamics.html" target="_top" xlink:title="Discrete event dynamic system governed by discrete transition map and triggered by discrete events...">
<polygon fill="white" stroke="black" points="279.5,-475.5 279.5,-494.5 377.5,-494.5 377.5,-475.5 279.5,-475.5"/>
<text text-anchor="middle" x="328.5" y="-482.5" font-family="Helvetica,sans-Serif" font-size="10.00">DiscreteDynamics</text>
</a>
</g>
</g>
<!-- Node9&#45;&gt;Node12 -->
<g id="edge12" class="edge"><title>Node9&#45;&gt;Node12</title>
<path fill="none" stroke="midnightblue" d="M210.039,-497.717C232.489,-495.286 257.88,-492.537 279.297,-490.219"/>
<polygon fill="midnightblue" stroke="midnightblue" points="209.521,-494.252 199.956,-498.808 210.275,-501.211 209.521,-494.252"/>
</g>
<!-- Node11 -->
<g id="node12" class="node"><title>Node11</title>
<g id="a_node12"><a xlink:href="classRobotLinks.html" target="_top" xlink:title="A class with basic model descriptions and functionalities of the multi&#45;link rigid&#45;body robot platform...">
<polygon fill="white" stroke="black" points="472.5,-513.5 472.5,-532.5 538.5,-532.5 538.5,-513.5 472.5,-513.5"/>
<text text-anchor="middle" x="505.5" y="-520.5" font-family="Helvetica,sans-Serif" font-size="10.00">RobotLinks</text>
</a>
</g>
</g>
<!-- Node10&#45;&gt;Node11 -->
<g id="edge11" class="edge"><title>Node10&#45;&gt;Node11</title>
<path fill="none" stroke="midnightblue" d="M393.962,-523C420.638,-523 450.39,-523 472.302,-523"/>
<polygon fill="midnightblue" stroke="midnightblue" points="393.912,-519.5 383.912,-523 393.912,-526.5 393.912,-519.5"/>
</g>
<!-- Node13 -->
<g id="node14" class="node"><title>Node13</title>
<g id="a_node14"><a xlink:href="classRigidImpact.html" target="_top" xlink:title="RigidImpact represents a rigid body impact map assuming that the impact is plastic and occurs instant...">
<polygon fill="white" stroke="black" points="471,-475.5 471,-494.5 540,-494.5 540,-475.5 471,-475.5"/>
<text text-anchor="middle" x="505.5" y="-482.5" font-family="Helvetica,sans-Serif" font-size="10.00">RigidImpact</text>
</a>
</g>
</g>
<!-- Node12&#45;&gt;Node13 -->
<g id="edge13" class="edge"><title>Node12&#45;&gt;Node13</title>
<path fill="none" stroke="midnightblue" d="M388.085,-485C415.584,-485 447.376,-485 470.781,-485"/>
<polygon fill="midnightblue" stroke="midnightblue" points="387.783,-481.5 377.783,-485 387.783,-488.5 387.783,-481.5"/>
</g>
<!-- Node16 -->
<g id="node17" class="node"><title>Node16</title>
<g id="a_node17"><a xlink:href="classfrost_1_1Animator_1_1Cylinder.html" target="_top" xlink:title="Cylinder depicting a cylinder surface between two points for frost.Animator.Display. ">
<polygon fill="white" stroke="black" points="267,-437.5 267,-456.5 390,-456.5 390,-437.5 267,-437.5"/>
<text text-anchor="middle" x="328.5" y="-444.5" font-family="Helvetica,sans-Serif" font-size="10.00">frost::Animator::Cylinder</text>
</a>
</g>
</g>
<!-- Node15&#45;&gt;Node16 -->
<g id="edge16" class="edge"><title>Node15&#45;&gt;Node16</title>
<path fill="none" stroke="midnightblue" d="M231.148,-436.569C243.182,-437.872 255.434,-439.198 266.987,-440.449"/>
<polygon fill="midnightblue" stroke="midnightblue" points="231.429,-433.079 221.11,-435.482 230.675,-440.038 231.429,-433.079"/>
</g>
<!-- Node17 -->
<g id="node18" class="node"><title>Node17</title>
<g id="a_node18"><a xlink:href="classfrost_1_1Animator_1_1Lines.html" target="_top" xlink:title="Line object for frost.Animator.Display. ">
<polygon fill="white" stroke="black" points="273.5,-399.5 273.5,-418.5 383.5,-418.5 383.5,-399.5 273.5,-399.5"/>
<text text-anchor="middle" x="328.5" y="-406.5" font-family="Helvetica,sans-Serif" font-size="10.00">frost::Animator::Lines</text>
</a>
</g>
</g>
<!-- Node15&#45;&gt;Node17 -->
<g id="edge17" class="edge"><title>Node15&#45;&gt;Node17</title>
<path fill="none" stroke="midnightblue" d="M231.378,-419.406C245.581,-417.869 260.079,-416.299 273.366,-414.861"/>
<polygon fill="midnightblue" stroke="midnightblue" points="230.675,-415.962 221.11,-420.518 231.429,-422.921 230.675,-415.962"/>
</g>
<!-- Node18 -->
<g id="node19" class="node"><title>Node18</title>
<g id="a_node19"><a xlink:href="classfrost_1_1Animator_1_1Patch.html" target="_top" xlink:title="Patch depicting a polyhydron surface for frost.Animator.Display. ">
<polygon fill="white" stroke="black" points="272,-361.5 272,-380.5 385,-380.5 385,-361.5 272,-361.5"/>
<text text-anchor="middle" x="328.5" y="-368.5" font-family="Helvetica,sans-Serif" font-size="10.00">frost::Animator::Patch</text>
</a>
</g>
</g>
<!-- Node15&#45;&gt;Node18 -->
<g id="edge18" class="edge"><title>Node15&#45;&gt;Node18</title>
<path fill="none" stroke="midnightblue" d="M202.23,-415.548C208.618,-413.563 215.011,-411.372 221,-409 237.82,-402.337 240.162,-396.617 257,-390 266.202,-386.384 276.342,-383.207 285.993,-380.538"/>
<polygon fill="midnightblue" stroke="midnightblue" points="200.854,-412.306 192.255,-418.496 202.837,-419.019 200.854,-412.306"/>
</g>
<!-- Node21 -->
<g id="node22" class="node"><title>Node21</title>
<g id="a_node22"><a xlink:href="classfrost_1_1Animator_1_1Sphere.html" target="_top" xlink:title="Sphere object for frost.Animator.Display. ">
<polygon fill="white" stroke="black" points="269.5,-323.5 269.5,-342.5 387.5,-342.5 387.5,-323.5 269.5,-323.5"/>
<text text-anchor="middle" x="328.5" y="-330.5" font-family="Helvetica,sans-Serif" font-size="10.00">frost::Animator::Sphere</text>
</a>
</g>
</g>
<!-- Node15&#45;&gt;Node21 -->
<g id="edge21" class="edge"><title>Node15&#45;&gt;Node21</title>
<path fill="none" stroke="midnightblue" d="M212.997,-414.062C215.799,-412.545 218.486,-410.864 221,-409 245.067,-391.152 232.884,-369.782 257,-352 262.305,-348.088 268.364,-344.981 274.652,-342.514"/>
<polygon fill="midnightblue" stroke="midnightblue" points="211.325,-410.979 203.729,-418.365 214.273,-417.328 211.325,-410.979"/>
</g>
<!-- Node19 -->
<g id="node20" class="node"><title>Node19</title>
<g id="a_node20"><a xlink:href="classfrost_1_1Animator_1_1Pyramid.html" target="_top" xlink:title="Patch depicting a 3d Pyramid for frost.Animator.Display. ">
<polygon fill="white" stroke="black" points="444,-399.5 444,-418.5 567,-418.5 567,-399.5 444,-399.5"/>
<text text-anchor="middle" x="505.5" y="-406.5" font-family="Helvetica,sans-Serif" font-size="10.00">frost::Animator::Pyramid</text>
</a>
</g>
</g>
<!-- Node18&#45;&gt;Node19 -->
<g id="edge19" class="edge"><title>Node18&#45;&gt;Node19</title>
<path fill="none" stroke="midnightblue" d="M383.624,-382.753C408.369,-388.126 437.303,-394.409 460.658,-399.48"/>
<polygon fill="midnightblue" stroke="midnightblue" points="384.175,-379.291 373.66,-380.589 382.689,-386.131 384.175,-379.291"/>
</g>
<!-- Node20 -->
<g id="node21" class="node"><title>Node20</title>
<g id="a_node21"><a xlink:href="classfrost_1_1Animator_1_1Rectangler.html" target="_top" xlink:title="Patch depicting a 3d rectangler for frost.Animator.Display. ">
<polygon fill="white" stroke="black" points="438.5,-361.5 438.5,-380.5 572.5,-380.5 572.5,-361.5 438.5,-361.5"/>
<text text-anchor="middle" x="505.5" y="-368.5" font-family="Helvetica,sans-Serif" font-size="10.00">frost::Animator::Rectangler</text>
</a>
</g>
</g>
<!-- Node18&#45;&gt;Node20 -->
<g id="edge20" class="edge"><title>Node18&#45;&gt;Node20</title>
<path fill="none" stroke="midnightblue" d="M395.443,-371C409.526,-371 424.402,-371 438.487,-371"/>
<polygon fill="midnightblue" stroke="midnightblue" points="395.352,-367.5 385.352,-371 395.352,-374.5 395.352,-367.5"/>
</g>
<!-- Node22 -->
<g id="node23" class="node"><title>Node22</title>
<g id="a_node23"><a xlink:href="classfrost_1_1Animator_1_1JointSphere.html" target="_top" xlink:title="Sphere depicting joints and axis of rotation for frost.Animator.Display. ">
<polygon fill="white" stroke="black" points="436,-323.5 436,-342.5 575,-342.5 575,-323.5 436,-323.5"/>
<text text-anchor="middle" x="505.5" y="-330.5" font-family="Helvetica,sans-Serif" font-size="10.00">frost::Animator::JointSphere</text>
</a>
</g>
</g>
<!-- Node21&#45;&gt;Node22 -->
<g id="edge22" class="edge"><title>Node21&#45;&gt;Node22</title>
<path fill="none" stroke="midnightblue" d="M398.059,-333C410.483,-333 423.441,-333 435.867,-333"/>
<polygon fill="midnightblue" stroke="midnightblue" points="397.773,-329.5 387.772,-333 397.772,-336.5 397.773,-329.5"/>
</g>
<!-- Node23 -->
<g id="node24" class="node"><title>Node23</title>
<g id="a_node24"><a xlink:href="classfrost_1_1Animator_1_1LinkSphere.html" target="_top" xlink:title="Sphere depicting center of mass of a rigid link for frost.Animator.Display. ">
<polygon fill="white" stroke="black" points="437.5,-285.5 437.5,-304.5 573.5,-304.5 573.5,-285.5 437.5,-285.5"/>
<text text-anchor="middle" x="505.5" y="-292.5" font-family="Helvetica,sans-Serif" font-size="10.00">frost::Animator::LinkSphere</text>
</a>
</g>
</g>
<!-- Node21&#45;&gt;Node23 -->
<g id="edge23" class="edge"><title>Node21&#45;&gt;Node23</title>
<path fill="none" stroke="midnightblue" d="M383.624,-321.247C408.369,-315.874 437.303,-309.591 460.658,-304.52"/>
<polygon fill="midnightblue" stroke="midnightblue" points="382.689,-317.869 373.66,-323.411 384.175,-324.709 382.689,-317.869"/>
</g>
<!-- Node29 -->
<g id="node30" class="node"><title>Node29</title>
<g id="a_node30"><a xlink:href="classHybridTrajectoryOptimization.html" target="_top" xlink:title="HybridTrajectoryOptimization defines a particular type of nonlinear programing problem — trajectory ...">
<polygon fill="white" stroke="black" points="257,-247.5 257,-266.5 400,-266.5 400,-247.5 257,-247.5"/>
<text text-anchor="middle" x="328.5" y="-254.5" font-family="Helvetica,sans-Serif" font-size="10.00">HybridTrajectoryOptimization</text>
</a>
</g>
</g>
<!-- Node28&#45;&gt;Node29 -->
<g id="edge29" class="edge"><title>Node28&#45;&gt;Node29</title>
<path fill="none" stroke="midnightblue" d="M208.907,-244.161C224.208,-245.817 240.943,-247.629 256.892,-249.356"/>
<polygon fill="midnightblue" stroke="midnightblue" points="208.889,-240.639 198.57,-243.042 208.135,-247.598 208.889,-240.639"/>
</g>
<!-- Node30 -->
<g id="node31" class="node"><title>Node30</title>
<g id="a_node31"><a xlink:href="classTrajectoryOptimization.html" target="_top" xlink:title="TrajectoryOptimization defines a particular type of nonlinear programing problem — trajectory optimi...">
<polygon fill="white" stroke="black" points="271,-209.5 271,-228.5 386,-228.5 386,-209.5 271,-209.5"/>
<text text-anchor="middle" x="328.5" y="-216.5" font-family="Helvetica,sans-Serif" font-size="10.00">TrajectoryOptimization</text>
</a>
</g>
</g>
<!-- Node28&#45;&gt;Node30 -->
<g id="edge30" class="edge"><title>Node28&#45;&gt;Node30</title>
<path fill="none" stroke="midnightblue" d="M208.701,-231.861C228.549,-229.713 250.828,-227.301 270.685,-225.151"/>
<polygon fill="midnightblue" stroke="midnightblue" points="208.135,-228.402 198.57,-232.958 208.889,-235.361 208.135,-228.402"/>
</g>
<!-- Node34 -->
<g id="node35" class="node"><title>Node34</title>
<g id="a_node35"><a xlink:href="classIpoptApplication.html" target="_top" xlink:title="IpoptApplication defines an interface application class for IPOPT solvers. ">
<polygon fill="white" stroke="black" points="285.5,-114.5 285.5,-133.5 371.5,-133.5 371.5,-114.5 285.5,-114.5"/>
<text text-anchor="middle" x="328.5" y="-121.5" font-family="Helvetica,sans-Serif" font-size="10.00">IpoptApplication</text>
</a>
</g>
</g>
<!-- Node33&#45;&gt;Node34 -->
<g id="edge34" class="edge"><title>Node33&#45;&gt;Node34</title>
<path fill="none" stroke="midnightblue" d="M207.374,-124C232.637,-124 262.065,-124 285.47,-124"/>
<polygon fill="midnightblue" stroke="midnightblue" points="207.196,-120.5 197.196,-124 207.196,-127.5 207.196,-120.5"/>
</g>
<!-- Node36 -->
<g id="node37" class="node"><title>Node36</title>
<g id="a_node37"><a xlink:href="classSymFunction.html" target="_top" xlink:title="This class wraps a symbolic expression with additional information for the convenience of compiling a...">
<polygon fill="white" stroke="black" points="291.5,-76.5 291.5,-95.5 365.5,-95.5 365.5,-76.5 291.5,-76.5"/>
<text text-anchor="middle" x="328.5" y="-83.5" font-family="Helvetica,sans-Serif" font-size="10.00">SymFunction</text>
</a>
</g>
</g>
<!-- Node35&#45;&gt;Node36 -->
<g id="edge36" class="edge"><title>Node35&#45;&gt;Node36</title>
<path fill="none" stroke="midnightblue" d="M204.107,-86C232.237,-86 266.255,-86 291.443,-86"/>
<polygon fill="midnightblue" stroke="midnightblue" points="204.037,-82.5001 194.037,-86 204.037,-89.5001 204.037,-82.5001"/>
</g>
<!-- Node37 -->
<g id="node38" class="node"><title>Node37</title>
<g id="a_node38"><a xlink:href="classSymVariable.html" target="_top" xlink:title="An object that represents a list of symbolic variables. ">
<polygon fill="white" stroke="black" points="292.5,-38.5 292.5,-57.5 364.5,-57.5 364.5,-38.5 292.5,-38.5"/>
<text text-anchor="middle" x="328.5" y="-45.5" font-family="Helvetica,sans-Serif" font-size="10.00">SymVariable</text>
</a>
</g>
</g>
<!-- Node35&#45;&gt;Node37 -->
<g id="edge37" class="edge"><title>Node35&#45;&gt;Node37</title>
<path fill="none" stroke="midnightblue" d="M203.839,-74.7756C232.344,-68.6035 266.959,-61.1086 292.308,-55.6199"/>
<polygon fill="midnightblue" stroke="midnightblue" points="203.069,-71.361 194.037,-76.8981 204.551,-78.2025 203.069,-71.361"/>
</g>
</g>
</svg>
