<?xml version="1.0" encoding="UTF-8" standalone="no"?>
<!DOCTYPE svg PUBLIC "-//W3C//DTD SVG 1.1//EN"
 "http://www.w3.org/Graphics/SVG/1.1/DTD/svg11.dtd">
<!-- Generated by graphviz version 2.38.0 (20140413.2041)
 -->
<!-- Title: HybridSystem Pages: 1 -->
<svg width="130pt" height="84pt"
 viewBox="0.00 0.00 129.50 84.00" xmlns="http://www.w3.org/2000/svg" xmlns:xlink="http://www.w3.org/1999/xlink">
<g id="graph0" class="graph" transform="scale(1 1) rotate(0) translate(4 80)">
<title>HybridSystem</title>
<polygon fill="white" stroke="none" points="-4,4 -4,-80 125.5,-80 125.5,4 -4,4"/>
<!-- Node0 -->
<g id="node1" class="node"><title>Node0</title>
<polygon fill="#bfbfbf" stroke="black" points="18,-0.5 18,-19.5 97,-19.5 97,-0.5 18,-0.5"/>
<text text-anchor="middle" x="57.5" y="-7.5" font-family="Helvetica,sans-Serif" font-size="10.00">HybridSystem</text>
</g>
<!-- Node1 -->
<g id="node2" class="node"><title>Node1</title>
<g id="a_node2"><a xlink:href="classhandle.html" target="_top" xlink:title="Matlab&#39;s base handle class (documentation generation substitute) ">
<polygon fill="white" stroke="black" points="0,-56.5 0,-75.5 45,-75.5 45,-56.5 0,-56.5"/>
<text text-anchor="middle" x="22.5" y="-63.5" font-family="Helvetica,sans-Serif" font-size="10.00">handle</text>
</a>
</g>
</g>
<!-- Node1&#45;&gt;Node0 -->
<g id="edge1" class="edge"><title>Node1&#45;&gt;Node0</title>
<path fill="none" stroke="midnightblue" d="M33.8001,-47.5656C39.8219,-38.2747 46.9686,-27.2484 51.828,-19.7511"/>
<polygon fill="midnightblue" stroke="midnightblue" points="30.7815,-45.7878 28.2795,-56.083 36.6556,-49.5951 30.7815,-45.7878"/>
</g>
<!-- Node2 -->
<g id="node3" class="node"><title>Node2</title>
<polygon fill="white" stroke="#bfbfbf" points="63.5,-56.5 63.5,-75.5 121.5,-75.5 121.5,-56.5 63.5,-56.5"/>
<text text-anchor="middle" x="92.5" y="-63.5" font-family="Helvetica,sans-Serif" font-size="10.00">Copyable</text>
</g>
<!-- Node2&#45;&gt;Node0 -->
<g id="edge2" class="edge"><title>Node2&#45;&gt;Node0</title>
<path fill="none" stroke="midnightblue" d="M81.1999,-47.5656C75.1781,-38.2747 68.0314,-27.2484 63.172,-19.7511"/>
<polygon fill="midnightblue" stroke="midnightblue" points="78.3444,-49.5951 86.7205,-56.083 84.2185,-45.7878 78.3444,-49.5951"/>
</g>
</g>
</svg>
