<?xml version="1.0" encoding="UTF-8" standalone="no"?>
<!DOCTYPE svg PUBLIC "-//W3C//DTD SVG 1.1//EN"
 "http://www.w3.org/Graphics/SVG/1.1/DTD/svg11.dtd">
<!-- Generated by graphviz version 2.38.0 (20140413.2041)
 -->
<!-- Title: frost::Animator::Sphere Pages: 1 -->
<svg width="302pt" height="196pt"
 viewBox="0.00 0.00 301.50 196.00" xmlns="http://www.w3.org/2000/svg" xmlns:xlink="http://www.w3.org/1999/xlink">
<g id="graph0" class="graph" transform="scale(1 1) rotate(0) translate(4 192)">
<title>frost::Animator::Sphere</title>
<polygon fill="white" stroke="none" points="-4,4 -4,-192 297.5,-192 297.5,4 -4,4"/>
<!-- Node0 -->
<g id="node1" class="node"><title>Node0</title>
<polygon fill="#bfbfbf" stroke="black" points="88.5,-56.5 88.5,-75.5 206.5,-75.5 206.5,-56.5 88.5,-56.5"/>
<text text-anchor="middle" x="147.5" y="-63.5" font-family="Helvetica,sans-Serif" font-size="10.00">frost::Animator::Sphere</text>
</g>
<!-- Node3 -->
<g id="node4" class="node"><title>Node3</title>
<g id="a_node4"><a xlink:href="classfrost_1_1Animator_1_1JointSphere.html" target="_top" xlink:title="Sphere depicting joints and axis of rotation for frost.Animator.Display. ">
<polygon fill="white" stroke="black" points="0,-0.5 0,-19.5 139,-19.5 139,-0.5 0,-0.5"/>
<text text-anchor="middle" x="69.5" y="-7.5" font-family="Helvetica,sans-Serif" font-size="10.00">frost::Animator::JointSphere</text>
</a>
</g>
</g>
<!-- Node0&#45;&gt;Node3 -->
<g id="edge3" class="edge"><title>Node0&#45;&gt;Node3</title>
<path fill="none" stroke="midnightblue" d="M126.732,-50.6221C112.483,-40.7574 94.0438,-27.9919 82.0009,-19.6545"/>
<polygon fill="midnightblue" stroke="midnightblue" points="124.754,-53.5095 134.968,-56.324 128.738,-47.7541 124.754,-53.5095"/>
</g>
<!-- Node4 -->
<g id="node5" class="node"><title>Node4</title>
<g id="a_node5"><a xlink:href="classfrost_1_1Animator_1_1LinkSphere.html" target="_top" xlink:title="Sphere depicting center of mass of a rigid link for frost.Animator.Display. ">
<polygon fill="white" stroke="black" points="157.5,-0.5 157.5,-19.5 293.5,-19.5 293.5,-0.5 157.5,-0.5"/>
<text text-anchor="middle" x="225.5" y="-7.5" font-family="Helvetica,sans-Serif" font-size="10.00">frost::Animator::LinkSphere</text>
</a>
</g>
</g>
<!-- Node0&#45;&gt;Node4 -->
<g id="edge4" class="edge"><title>Node0&#45;&gt;Node4</title>
<path fill="none" stroke="midnightblue" d="M168.268,-50.6221C182.517,-40.7574 200.956,-27.9919 212.999,-19.6545"/>
<polygon fill="midnightblue" stroke="midnightblue" points="166.262,-47.7541 160.032,-56.324 170.246,-53.5095 166.262,-47.7541"/>
</g>
<!-- Node1 -->
<g id="node2" class="node"><title>Node1</title>
<g id="a_node2"><a xlink:href="classfrost_1_1Animator_1_1DisplayItem.html" target="_top" xlink:title="Abstract class for items in frost.Animator.Display. ">
<polygon fill="white" stroke="black" points="77.5,-112.5 77.5,-131.5 217.5,-131.5 217.5,-112.5 77.5,-112.5"/>
<text text-anchor="middle" x="147.5" y="-119.5" font-family="Helvetica,sans-Serif" font-size="10.00">frost::Animator::DisplayItem</text>
</a>
</g>
</g>
<!-- Node1&#45;&gt;Node0 -->
<g id="edge1" class="edge"><title>Node1&#45;&gt;Node0</title>
<path fill="none" stroke="midnightblue" d="M147.5,-101.805C147.5,-92.9102 147.5,-82.7798 147.5,-75.7511"/>
<polygon fill="midnightblue" stroke="midnightblue" points="144,-102.083 147.5,-112.083 151,-102.083 144,-102.083"/>
</g>
<!-- Node2 -->
<g id="node3" class="node"><title>Node2</title>
<g id="a_node3"><a xlink:href="classhandle.html" target="_top" xlink:title="Matlab&#39;s base handle class (documentation generation substitute) ">
<polygon fill="white" stroke="black" points="125,-168.5 125,-187.5 170,-187.5 170,-168.5 125,-168.5"/>
<text text-anchor="middle" x="147.5" y="-175.5" font-family="Helvetica,sans-Serif" font-size="10.00">handle</text>
</a>
</g>
</g>
<!-- Node2&#45;&gt;Node1 -->
<g id="edge2" class="edge"><title>Node2&#45;&gt;Node1</title>
<path fill="none" stroke="midnightblue" d="M147.5,-157.805C147.5,-148.91 147.5,-138.78 147.5,-131.751"/>
<polygon fill="midnightblue" stroke="midnightblue" points="144,-158.083 147.5,-168.083 151,-158.083 144,-158.083"/>
</g>
</g>
</svg>
