<?xml version="1.0" encoding="UTF-8" standalone="no"?>
<!DOCTYPE svg PUBLIC "-//W3C//DTD SVG 1.1//EN"
 "http://www.w3.org/Graphics/SVG/1.1/DTD/svg11.dtd">
<!-- Generated by graphviz version 2.38.0 (20140413.2041)
 -->
<!-- Title: frost::Animator::DisplayItem Pages: 1 -->
<svg width="563pt" height="180pt"
 viewBox="0.00 0.00 563.00 180.00" xmlns="http://www.w3.org/2000/svg" xmlns:xlink="http://www.w3.org/1999/xlink">
<g id="graph0" class="graph" transform="scale(1 1) rotate(0) translate(4 176)">
<title>frost::Animator::DisplayItem</title>
<polygon fill="white" stroke="none" points="-4,4 -4,-176 559,-176 559,4 -4,4"/>
<!-- Node0 -->
<g id="node1" class="node"><title>Node0</title>
<polygon fill="#bfbfbf" stroke="black" points="81,-95.5 81,-114.5 221,-114.5 221,-95.5 81,-95.5"/>
<text text-anchor="middle" x="151" y="-102.5" font-family="Helvetica,sans-Serif" font-size="10.00">frost::Animator::DisplayItem</text>
</g>
<!-- Node2 -->
<g id="node3" class="node"><title>Node2</title>
<g id="a_node3"><a xlink:href="classfrost_1_1Animator_1_1Cylinder.html" target="_top" xlink:title="Cylinder depicting a cylinder surface between two points for frost.Animator.Display. ">
<polygon fill="white" stroke="black" points="257,-152.5 257,-171.5 380,-171.5 380,-152.5 257,-152.5"/>
<text text-anchor="middle" x="318.5" y="-159.5" font-family="Helvetica,sans-Serif" font-size="10.00">frost::Animator::Cylinder</text>
</a>
</g>
</g>
<!-- Node0&#45;&gt;Node2 -->
<g id="edge2" class="edge"><title>Node0&#45;&gt;Node2</title>
<path fill="none" stroke="midnightblue" d="M186.846,-118.036C207.222,-125.552 233.482,-135.056 257,-143 266.492,-146.206 276.88,-149.534 286.328,-152.491"/>
<polygon fill="midnightblue" stroke="midnightblue" points="187.947,-114.711 177.354,-114.521 185.516,-121.276 187.947,-114.711"/>
</g>
<!-- Node3 -->
<g id="node4" class="node"><title>Node3</title>
<g id="a_node4"><a xlink:href="classfrost_1_1Animator_1_1Lines.html" target="_top" xlink:title="Line object for frost.Animator.Display. ">
<polygon fill="white" stroke="black" points="263.5,-114.5 263.5,-133.5 373.5,-133.5 373.5,-114.5 263.5,-114.5"/>
<text text-anchor="middle" x="318.5" y="-121.5" font-family="Helvetica,sans-Serif" font-size="10.00">frost::Animator::Lines</text>
</a>
</g>
</g>
<!-- Node0&#45;&gt;Node3 -->
<g id="edge3" class="edge"><title>Node0&#45;&gt;Node3</title>
<path fill="none" stroke="midnightblue" d="M231.197,-114.092C242.102,-115.344 253.089,-116.605 263.399,-117.789"/>
<polygon fill="midnightblue" stroke="midnightblue" points="231.562,-110.611 221.228,-112.948 230.763,-117.565 231.562,-110.611"/>
</g>
<!-- Node4 -->
<g id="node5" class="node"><title>Node4</title>
<g id="a_node5"><a xlink:href="classfrost_1_1Animator_1_1Patch.html" target="_top" xlink:title="Patch depicting a polyhydron surface for frost.Animator.Display. ">
<polygon fill="white" stroke="black" points="262,-76.5 262,-95.5 375,-95.5 375,-76.5 262,-76.5"/>
<text text-anchor="middle" x="318.5" y="-83.5" font-family="Helvetica,sans-Serif" font-size="10.00">frost::Animator::Patch</text>
</a>
</g>
</g>
<!-- Node0&#45;&gt;Node4 -->
<g id="edge4" class="edge"><title>Node0&#45;&gt;Node4</title>
<path fill="none" stroke="midnightblue" d="M231.462,-95.8775C241.742,-94.6973 252.09,-93.5093 261.869,-92.3866"/>
<polygon fill="midnightblue" stroke="midnightblue" points="230.763,-92.4346 221.228,-97.0524 231.562,-99.3889 230.763,-92.4346"/>
</g>
<!-- Node7 -->
<g id="node8" class="node"><title>Node7</title>
<g id="a_node8"><a xlink:href="classfrost_1_1Animator_1_1Sphere.html" target="_top" xlink:title="Sphere object for frost.Animator.Display. ">
<polygon fill="white" stroke="black" points="259.5,-38.5 259.5,-57.5 377.5,-57.5 377.5,-38.5 259.5,-38.5"/>
<text text-anchor="middle" x="318.5" y="-45.5" font-family="Helvetica,sans-Serif" font-size="10.00">frost::Animator::Sphere</text>
</a>
</g>
</g>
<!-- Node0&#45;&gt;Node7 -->
<g id="edge7" class="edge"><title>Node0&#45;&gt;Node7</title>
<path fill="none" stroke="midnightblue" d="M186.846,-91.9644C207.222,-84.4485 233.482,-74.9444 257,-67 266.492,-63.7937 276.88,-60.4661 286.328,-57.5086"/>
<polygon fill="midnightblue" stroke="midnightblue" points="185.516,-88.7244 177.354,-95.4788 187.947,-95.2889 185.516,-88.7244"/>
</g>
<!-- Node1 -->
<g id="node2" class="node"><title>Node1</title>
<g id="a_node2"><a xlink:href="classhandle.html" target="_top" xlink:title="Matlab&#39;s base handle class (documentation generation substitute) ">
<polygon fill="white" stroke="black" points="0,-95.5 0,-114.5 45,-114.5 45,-95.5 0,-95.5"/>
<text text-anchor="middle" x="22.5" y="-102.5" font-family="Helvetica,sans-Serif" font-size="10.00">handle</text>
</a>
</g>
</g>
<!-- Node1&#45;&gt;Node0 -->
<g id="edge1" class="edge"><title>Node1&#45;&gt;Node0</title>
<path fill="none" stroke="midnightblue" d="M55.3901,-105C63.2739,-105 72.0278,-105 80.9369,-105"/>
<polygon fill="midnightblue" stroke="midnightblue" points="55.2462,-101.5 45.2461,-105 55.2461,-108.5 55.2462,-101.5"/>
</g>
<!-- Node5 -->
<g id="node6" class="node"><title>Node5</title>
<g id="a_node6"><a xlink:href="classfrost_1_1Animator_1_1Pyramid.html" target="_top" xlink:title="Patch depicting a 3d Pyramid for frost.Animator.Display. ">
<polygon fill="white" stroke="black" points="424,-114.5 424,-133.5 547,-133.5 547,-114.5 424,-114.5"/>
<text text-anchor="middle" x="485.5" y="-121.5" font-family="Helvetica,sans-Serif" font-size="10.00">frost::Animator::Pyramid</text>
</a>
</g>
</g>
<!-- Node4&#45;&gt;Node5 -->
<g id="edge5" class="edge"><title>Node4&#45;&gt;Node5</title>
<path fill="none" stroke="midnightblue" d="M371.154,-97.8961C394.346,-103.237 421.338,-109.454 443.163,-114.48"/>
<polygon fill="midnightblue" stroke="midnightblue" points="371.667,-94.4226 361.136,-95.589 370.096,-101.244 371.667,-94.4226"/>
</g>
<!-- Node6 -->
<g id="node7" class="node"><title>Node6</title>
<g id="a_node7"><a xlink:href="classfrost_1_1Animator_1_1Rectangler.html" target="_top" xlink:title="Patch depicting a 3d rectangler for frost.Animator.Display. ">
<polygon fill="white" stroke="black" points="418.5,-76.5 418.5,-95.5 552.5,-95.5 552.5,-76.5 418.5,-76.5"/>
<text text-anchor="middle" x="485.5" y="-83.5" font-family="Helvetica,sans-Serif" font-size="10.00">frost::Animator::Rectangler</text>
</a>
</g>
</g>
<!-- Node4&#45;&gt;Node6 -->
<g id="edge6" class="edge"><title>Node4&#45;&gt;Node6</title>
<path fill="none" stroke="midnightblue" d="M385.586,-86C396.403,-86 407.612,-86 418.428,-86"/>
<polygon fill="midnightblue" stroke="midnightblue" points="385.362,-82.5001 375.361,-86 385.361,-89.5001 385.362,-82.5001"/>
</g>
<!-- Node8 -->
<g id="node9" class="node"><title>Node8</title>
<g id="a_node9"><a xlink:href="classfrost_1_1Animator_1_1JointSphere.html" target="_top" xlink:title="Sphere depicting joints and axis of rotation for frost.Animator.Display. ">
<polygon fill="white" stroke="black" points="416,-38.5 416,-57.5 555,-57.5 555,-38.5 416,-38.5"/>
<text text-anchor="middle" x="485.5" y="-45.5" font-family="Helvetica,sans-Serif" font-size="10.00">frost::Animator::JointSphere</text>
</a>
</g>
</g>
<!-- Node7&#45;&gt;Node8 -->
<g id="edge8" class="edge"><title>Node7&#45;&gt;Node8</title>
<path fill="none" stroke="midnightblue" d="M387.949,-48C397.164,-48 406.62,-48 415.838,-48"/>
<polygon fill="midnightblue" stroke="midnightblue" points="387.673,-44.5001 377.673,-48 387.673,-51.5001 387.673,-44.5001"/>
</g>
<!-- Node9 -->
<g id="node10" class="node"><title>Node9</title>
<g id="a_node10"><a xlink:href="classfrost_1_1Animator_1_1LinkSphere.html" target="_top" xlink:title="Sphere depicting center of mass of a rigid link for frost.Animator.Display. ">
<polygon fill="white" stroke="black" points="417.5,-0.5 417.5,-19.5 553.5,-19.5 553.5,-0.5 417.5,-0.5"/>
<text text-anchor="middle" x="485.5" y="-7.5" font-family="Helvetica,sans-Serif" font-size="10.00">frost::Animator::LinkSphere</text>
</a>
</g>
</g>
<!-- Node7&#45;&gt;Node9 -->
<g id="edge9" class="edge"><title>Node7&#45;&gt;Node9</title>
<path fill="none" stroke="midnightblue" d="M371.154,-36.1039C394.346,-30.7626 421.338,-24.5463 443.163,-19.5201"/>
<polygon fill="midnightblue" stroke="midnightblue" points="370.096,-32.7559 361.136,-38.411 371.667,-39.5774 370.096,-32.7559"/>
</g>
</g>
</svg>
