<?xml version="1.0" encoding="UTF-8" standalone="no"?>
<!DOCTYPE svg PUBLIC "-//W3C//DTD SVG 1.1//EN"
 "http://www.w3.org/Graphics/SVG/1.1/DTD/svg11.dtd">
<!-- Generated by graphviz version 2.38.0 (20140413.2041)
 -->
<!-- Title: IOFeedback Pages: 1 -->
<svg width="78pt" height="140pt"
 viewBox="0.00 0.00 78.00 140.00" xmlns="http://www.w3.org/2000/svg" xmlns:xlink="http://www.w3.org/1999/xlink">
<g id="graph0" class="graph" transform="scale(1 1) rotate(0) translate(4 136)">
<title>IOFeedback</title>
<polygon fill="white" stroke="none" points="-4,4 -4,-136 74,-136 74,4 -4,4"/>
<!-- Node0 -->
<g id="node1" class="node"><title>Node0</title>
<polygon fill="#bfbfbf" stroke="black" points="0,-0.5 0,-19.5 70,-19.5 70,-0.5 0,-0.5"/>
<text text-anchor="middle" x="35" y="-7.5" font-family="Helvetica,sans-Serif" font-size="10.00">IOFeedback</text>
</g>
<!-- Node1 -->
<g id="node2" class="node"><title>Node1</title>
<g id="a_node2"><a xlink:href="classController.html" target="_top" xlink:title="This abstract class defines interfaces to configuration and functionalities of different types of con...">
<polygon fill="white" stroke="black" points="5.5,-56.5 5.5,-75.5 64.5,-75.5 64.5,-56.5 5.5,-56.5"/>
<text text-anchor="middle" x="35" y="-63.5" font-family="Helvetica,sans-Serif" font-size="10.00">Controller</text>
</a>
</g>
</g>
<!-- Node1&#45;&gt;Node0 -->
<g id="edge1" class="edge"><title>Node1&#45;&gt;Node0</title>
<path fill="none" stroke="midnightblue" d="M35,-45.8045C35,-36.9102 35,-26.7798 35,-19.7511"/>
<polygon fill="midnightblue" stroke="midnightblue" points="31.5001,-46.083 35,-56.083 38.5001,-46.083 31.5001,-46.083"/>
</g>
<!-- Node2 -->
<g id="node3" class="node"><title>Node2</title>
<g id="a_node3"><a xlink:href="classhandle.html" target="_top" xlink:title="Matlab&#39;s base handle class (documentation generation substitute) ">
<polygon fill="white" stroke="black" points="12.5,-112.5 12.5,-131.5 57.5,-131.5 57.5,-112.5 12.5,-112.5"/>
<text text-anchor="middle" x="35" y="-119.5" font-family="Helvetica,sans-Serif" font-size="10.00">handle</text>
</a>
</g>
</g>
<!-- Node2&#45;&gt;Node1 -->
<g id="edge2" class="edge"><title>Node2&#45;&gt;Node1</title>
<path fill="none" stroke="midnightblue" d="M35,-101.805C35,-92.9102 35,-82.7798 35,-75.7511"/>
<polygon fill="midnightblue" stroke="midnightblue" points="31.5001,-102.083 35,-112.083 38.5001,-102.083 31.5001,-102.083"/>
</g>
</g>
</svg>
