<?xml version="1.0" encoding="UTF-8" standalone="no"?>
<!DOCTYPE svg PUBLIC "-//W3C//DTD SVG 1.1//EN"
 "http://www.w3.org/Graphics/SVG/1.1/DTD/svg11.dtd">
<!-- Generated by graphviz version 2.38.0 (20140413.2041)
 -->
<!-- Title: Graphical Class Hierarchy Pages: 1 -->
<svg width="596pt" height="712pt"
 viewBox="0.00 0.00 596.00 712.00" xmlns="http://www.w3.org/2000/svg" xmlns:xlink="http://www.w3.org/1999/xlink">
<g id="graph0" class="graph" transform="scale(1 1) rotate(0) translate(4 708)">
<title>Graphical Class Hierarchy</title>
<polygon fill="white" stroke="none" points="-4,4 -4,-708 592,-708 592,4 -4,4"/>
<!-- Node17 -->
<g id="node1" class="node"><title>Node17</title>
<g id="a_node1"><a xlink:href="classhandle.html" target="_top" xlink:title="Matlab&#39;s base handle class (documentation generation substitute) ">
<polygon fill="white" stroke="black" points="6.5,-380.5 6.5,-399.5 51.5,-399.5 51.5,-380.5 6.5,-380.5"/>
<text text-anchor="middle" x="29" y="-387.5" font-family="Helvetica,sans-Serif" font-size="10.00">handle</text>
</a>
</g>
</g>
<!-- Node18 -->
<g id="node2" class="node"><title>Node18</title>
<g id="a_node2"><a xlink:href="classController.html" target="_top" xlink:title="This abstract class defines interfaces to configuration and functionalities of different types of con...">
<polygon fill="white" stroke="black" points="134.5,-323.5 134.5,-342.5 193.5,-342.5 193.5,-323.5 134.5,-323.5"/>
<text text-anchor="middle" x="164" y="-330.5" font-family="Helvetica,sans-Serif" font-size="10.00">Controller</text>
</a>
</g>
</g>
<!-- Node17&#45;&gt;Node18 -->
<g id="edge1" class="edge"><title>Node17&#45;&gt;Node18</title>
<path fill="none" stroke="midnightblue" d="M52.1136,-374.873C64.099,-367.197 79.408,-358.208 94,-352 106.805,-346.552 121.613,-342.234 134.22,-339.101"/>
<polygon fill="midnightblue" stroke="midnightblue" points="50.1025,-372.007 43.6631,-380.42 53.9437,-377.859 50.1025,-372.007"/>
</g>
<!-- Node23 -->
<g id="node7" class="node"><title>Node23</title>
<g id="a_node7"><a xlink:href="classCoordinateFrame.html" target="_top" xlink:title="A kinematic coordinate frame class. ">
<polygon fill="white" stroke="black" points="118,-285.5 118,-304.5 210,-304.5 210,-285.5 118,-285.5"/>
<text text-anchor="middle" x="164" y="-292.5" font-family="Helvetica,sans-Serif" font-size="10.00">CoordinateFrame</text>
</a>
</g>
</g>
<!-- Node17&#45;&gt;Node23 -->
<g id="edge6" class="edge"><title>Node17&#45;&gt;Node23</title>
<path fill="none" stroke="midnightblue" d="M40.7347,-371.784C51.9009,-354.409 70.9608,-328.761 94,-314 101.219,-309.375 109.559,-305.863 117.891,-303.2"/>
<polygon fill="midnightblue" stroke="midnightblue" points="37.6497,-370.119 35.3681,-380.465 43.6037,-373.8 37.6497,-370.119"/>
</g>
<!-- Node0 -->
<g id="node10" class="node"><title>Node0</title>
<g id="a_node10"><a xlink:href="classDynamicalSystem.html" target="_top" xlink:title="A superclass for continuous/discrete dynamic systems. ">
<polygon fill="white" stroke="black" points="115.5,-665.5 115.5,-684.5 212.5,-684.5 212.5,-665.5 115.5,-665.5"/>
<text text-anchor="middle" x="164" y="-672.5" font-family="Helvetica,sans-Serif" font-size="10.00">DynamicalSystem</text>
</a>
</g>
</g>
<!-- Node17&#45;&gt;Node0 -->
<g id="edge9" class="edge"><title>Node17&#45;&gt;Node0</title>
<path fill="none" stroke="midnightblue" d="M32.1772,-409.9C38.6421,-465.425 59.458,-620.314 94,-656 99.7898,-661.982 107.275,-666.134 115.172,-669.004"/>
<polygon fill="midnightblue" stroke="midnightblue" points="35.6182,-409.181 31.0157,-399.638 28.6627,-409.968 35.6182,-409.181"/>
</g>
<!-- Node26 -->
<g id="node15" class="node"><title>Node26</title>
<g id="a_node15"><a xlink:href="classfrost_1_1Animator_1_1Display.html" target="_top" xlink:title="Creates a figure depicting a model. ">
<polygon fill="white" stroke="black" points="104,-133.5 104,-152.5 224,-152.5 224,-133.5 104,-133.5"/>
<text text-anchor="middle" x="164" y="-140.5" font-family="Helvetica,sans-Serif" font-size="10.00">frost::Animator::Display</text>
</a>
</g>
</g>
<!-- Node17&#45;&gt;Node26 -->
<g id="edge14" class="edge"><title>Node17&#45;&gt;Node26</title>
<path fill="none" stroke="midnightblue" d="M29.4801,-369.839C29.4881,-325.682 35.9466,-219.766 94,-162 97.8753,-158.144 102.457,-155.052 107.387,-152.576"/>
<polygon fill="midnightblue" stroke="midnightblue" points="25.9835,-370.161 29.6003,-380.119 32.983,-370.079 25.9835,-370.161"/>
</g>
<!-- Node27 -->
<g id="node16" class="node"><title>Node27</title>
<g id="a_node16"><a xlink:href="classfrost_1_1Animator_1_1DisplayItem.html" target="_top" xlink:title="Abstract class for items in frost.Animator.Display. ">
<polygon fill="white" stroke="black" points="94,-76.5 94,-95.5 234,-95.5 234,-76.5 94,-76.5"/>
<text text-anchor="middle" x="164" y="-83.5" font-family="Helvetica,sans-Serif" font-size="10.00">frost::Animator::DisplayItem</text>
</a>
</g>
</g>
<!-- Node17&#45;&gt;Node27 -->
<g id="edge15" class="edge"><title>Node17&#45;&gt;Node27</title>
<path fill="none" stroke="midnightblue" d="M29.5729,-370.22C29.5522,-322.737 35.5755,-200.574 94,-124 104.037,-110.844 120.001,-101.636 134.047,-95.5816"/>
<polygon fill="midnightblue" stroke="midnightblue" points="26.0745,-370.411 29.6752,-380.375 33.0742,-370.34 26.0745,-370.411"/>
</g>
<!-- Node36 -->
<g id="node25" class="node"><title>Node36</title>
<g id="a_node25"><a xlink:href="classHolonomicConstraint.html" target="_top" xlink:title="HolonomicConstraint: represents a group of holonomic constraints of a dynamical systems. ">
<polygon fill="white" stroke="black" points="110,-551.5 110,-570.5 218,-570.5 218,-551.5 110,-551.5"/>
<text text-anchor="middle" x="164" y="-558.5" font-family="Helvetica,sans-Serif" font-size="10.00">HolonomicConstraint</text>
</a>
</g>
</g>
<!-- Node17&#45;&gt;Node36 -->
<g id="edge24" class="edge"><title>Node17&#45;&gt;Node36</title>
<path fill="none" stroke="midnightblue" d="M32.756,-409.965C38.3175,-442.502 53.965,-506.852 94,-542 98.6686,-546.099 104.146,-549.321 109.937,-551.853"/>
<polygon fill="midnightblue" stroke="midnightblue" points="36.1831,-409.226 31.186,-399.883 29.2664,-410.303 36.1831,-409.226"/>
</g>
<!-- Node13 -->
<g id="node26" class="node"><title>Node13</title>
<g id="a_node26"><a xlink:href="classHybridSystem.html" target="_top" xlink:title="HybridSystem defines a hybrid dynamical system that has both continuous and discrete dynamics...">
<polygon fill="white" stroke="black" points="124.5,-627.5 124.5,-646.5 203.5,-646.5 203.5,-627.5 124.5,-627.5"/>
<text text-anchor="middle" x="164" y="-634.5" font-family="Helvetica,sans-Serif" font-size="10.00">HybridSystem</text>
</a>
</g>
</g>
<!-- Node17&#45;&gt;Node13 -->
<g id="edge25" class="edge"><title>Node17&#45;&gt;Node13</title>
<path fill="none" stroke="midnightblue" d="M29.4801,-410.161C29.4881,-454.318 35.9466,-560.234 94,-618 102.103,-626.063 113.293,-630.784 124.305,-633.525"/>
<polygon fill="midnightblue" stroke="midnightblue" points="32.983,-409.921 29.6003,-399.881 25.9835,-409.839 32.983,-409.921"/>
</g>
<!-- Node37 -->
<g id="node27" class="node"><title>Node37</title>
<g id="a_node27"><a xlink:href="classNlpFunction.html" target="_top" xlink:title="This class provides a data structure for a optimization function. This function could be either a con...">
<polygon fill="white" stroke="black" points="129.5,-513.5 129.5,-532.5 198.5,-532.5 198.5,-513.5 129.5,-513.5"/>
<text text-anchor="middle" x="164" y="-520.5" font-family="Helvetica,sans-Serif" font-size="10.00">NlpFunction</text>
</a>
</g>
</g>
<!-- Node17&#45;&gt;Node37 -->
<g id="edge26" class="edge"><title>Node17&#45;&gt;Node37</title>
<path fill="none" stroke="midnightblue" d="M35.6449,-409.283C44.1134,-434.795 62.5619,-479.4 94,-504 104.079,-511.887 117.217,-516.503 129.321,-519.203"/>
<polygon fill="midnightblue" stroke="midnightblue" points="38.9503,-408.126 32.6177,-399.632 32.2711,-410.221 38.9503,-408.126"/>
</g>
<!-- Node38 -->
<g id="node28" class="node"><title>Node38</title>
<g id="a_node28"><a xlink:href="classNlpVariable.html" target="_top" xlink:title="This class provides a data structure for NLP optimization variables. ">
<polygon fill="white" stroke="black" points="130.5,-475.5 130.5,-494.5 197.5,-494.5 197.5,-475.5 130.5,-475.5"/>
<text text-anchor="middle" x="164" y="-482.5" font-family="Helvetica,sans-Serif" font-size="10.00">NlpVariable</text>
</a>
</g>
</g>
<!-- Node17&#45;&gt;Node38 -->
<g id="edge27" class="edge"><title>Node17&#45;&gt;Node38</title>
<path fill="none" stroke="midnightblue" d="M40.7347,-408.216C51.9009,-425.591 70.9608,-451.239 94,-466 104.88,-472.971 118.308,-477.414 130.418,-480.232"/>
<polygon fill="midnightblue" stroke="midnightblue" points="43.6037,-406.2 35.3681,-399.535 37.6497,-409.881 43.6037,-406.2"/>
</g>
<!-- Node39 -->
<g id="node29" class="node"><title>Node39</title>
<g id="a_node29"><a xlink:href="classNonlinearProgram.html" target="_top" xlink:title="NonlinearProgram defines an abstract class for general nonlinear programing problems. ">
<polygon fill="white" stroke="black" points="116.5,-437.5 116.5,-456.5 211.5,-456.5 211.5,-437.5 116.5,-437.5"/>
<text text-anchor="middle" x="164" y="-444.5" font-family="Helvetica,sans-Serif" font-size="10.00">NonlinearProgram</text>
</a>
</g>
</g>
<!-- Node17&#45;&gt;Node39 -->
<g id="edge28" class="edge"><title>Node17&#45;&gt;Node39</title>
<path fill="none" stroke="midnightblue" d="M52.1136,-405.127C64.099,-412.803 79.408,-421.792 94,-428 102.575,-431.648 112.048,-434.79 121.157,-437.408"/>
<polygon fill="midnightblue" stroke="midnightblue" points="53.9437,-402.141 43.6631,-399.58 50.1025,-407.993 53.9437,-402.141"/>
</g>
<!-- Node42 -->
<g id="node32" class="node"><title>Node42</title>
<g id="a_node32"><a xlink:href="classRef.html" target="_top" xlink:title="Ref">
<polygon fill="white" stroke="black" points="148,-399.5 148,-418.5 180,-418.5 180,-399.5 148,-399.5"/>
<text text-anchor="middle" x="164" y="-406.5" font-family="Helvetica,sans-Serif" font-size="10.00">Ref</text>
</a>
</g>
</g>
<!-- Node17&#45;&gt;Node42 -->
<g id="edge31" class="edge"><title>Node17&#45;&gt;Node42</title>
<path fill="none" stroke="midnightblue" d="M61.8876,-394.555C89.1514,-398.45 127.177,-403.882 147.961,-406.852"/>
<polygon fill="midnightblue" stroke="midnightblue" points="62.0593,-391.044 51.6648,-393.095 61.0692,-397.974 62.0593,-391.044"/>
</g>
<!-- Node14 -->
<g id="node33" class="node"><title>Node14</title>
<g id="a_node33"><a xlink:href="classSimLogger.html" target="_top" xlink:title="A class for logging the internal data over time during a ODE simulation process. ">
<polygon fill="white" stroke="black" points="132.5,-589.5 132.5,-608.5 195.5,-608.5 195.5,-589.5 132.5,-589.5"/>
<text text-anchor="middle" x="164" y="-596.5" font-family="Helvetica,sans-Serif" font-size="10.00">SimLogger</text>
</a>
</g>
</g>
<!-- Node17&#45;&gt;Node14 -->
<g id="edge32" class="edge"><title>Node17&#45;&gt;Node14</title>
<path fill="none" stroke="midnightblue" d="M30.8113,-409.91C33.4848,-448.473 44.945,-533.627 94,-580 104.293,-589.73 119.102,-594.562 132.363,-596.929"/>
<polygon fill="midnightblue" stroke="midnightblue" points="34.284,-409.322 30.2318,-399.532 27.2949,-409.712 34.284,-409.322"/>
</g>
<!-- Node43 -->
<g id="node34" class="node"><title>Node43</title>
<g id="a_node34"><a xlink:href="classSolverApplication.html" target="_top" xlink:title="SolverApplication defines an abstract interface class for NLP solvers. ">
<polygon fill="white" stroke="black" points="118,-361.5 118,-380.5 210,-380.5 210,-361.5 118,-361.5"/>
<text text-anchor="middle" x="164" y="-368.5" font-family="Helvetica,sans-Serif" font-size="10.00">SolverApplication</text>
</a>
</g>
</g>
<!-- Node17&#45;&gt;Node43 -->
<g id="edge33" class="edge"><title>Node17&#45;&gt;Node43</title>
<path fill="none" stroke="midnightblue" d="M62.0234,-385.425C78.7737,-383.032 99.5579,-380.063 117.908,-377.442"/>
<polygon fill="midnightblue" stroke="midnightblue" points="61.0692,-382.026 51.6648,-386.905 62.0593,-388.956 61.0692,-382.026"/>
</g>
<!-- Node45 -->
<g id="node36" class="node"><title>Node45</title>
<g id="a_node36"><a xlink:href="classSymExpression.html" target="_top" xlink:title="An object that represents a symbolic expression in Mathematica. ">
<polygon fill="white" stroke="black" points="121,-247.5 121,-266.5 207,-266.5 207,-247.5 121,-247.5"/>
<text text-anchor="middle" x="164" y="-254.5" font-family="Helvetica,sans-Serif" font-size="10.00">SymExpression</text>
</a>
</g>
</g>
<!-- Node17&#45;&gt;Node45 -->
<g id="edge35" class="edge"><title>Node17&#45;&gt;Node45</title>
<path fill="none" stroke="midnightblue" d="M35.6449,-370.717C44.1134,-345.205 62.5619,-300.6 94,-276 101.73,-269.951 111.261,-265.826 120.744,-263.014"/>
<polygon fill="midnightblue" stroke="midnightblue" points="32.2711,-369.779 32.6177,-380.368 38.9503,-371.874 32.2711,-369.779"/>
</g>
<!-- Node48 -->
<g id="node39" class="node"><title>Node48</title>
<g id="a_node39"><a xlink:href="classUnilateralConstraint.html" target="_top" xlink:title="UnilateralConstraint represents a scalar or vector inequality constraints should be imposed on the co...">
<polygon fill="white" stroke="black" points="112.5,-209.5 112.5,-228.5 215.5,-228.5 215.5,-209.5 112.5,-209.5"/>
<text text-anchor="middle" x="164" y="-216.5" font-family="Helvetica,sans-Serif" font-size="10.00">UnilateralConstraint</text>
</a>
</g>
</g>
<!-- Node17&#45;&gt;Node48 -->
<g id="edge38" class="edge"><title>Node17&#45;&gt;Node48</title>
<path fill="none" stroke="midnightblue" d="M32.756,-370.035C38.3175,-337.498 53.965,-273.148 94,-238 99.3222,-233.327 105.695,-229.794 112.387,-227.123"/>
<polygon fill="midnightblue" stroke="midnightblue" points="29.2664,-369.697 31.186,-380.117 36.1831,-370.774 29.2664,-369.697"/>
</g>
<!-- Node49 -->
<g id="node40" class="node"><title>Node49</title>
<g id="a_node40"><a xlink:href="classVirtualConstraint.html" target="_top" xlink:title="VirtualConstraint: represents a group of virtual constraints of a dynamical systems. ">
<polygon fill="white" stroke="black" points="119.5,-171.5 119.5,-190.5 208.5,-190.5 208.5,-171.5 119.5,-171.5"/>
<text text-anchor="middle" x="164" y="-178.5" font-family="Helvetica,sans-Serif" font-size="10.00">VirtualConstraint</text>
</a>
</g>
</g>
<!-- Node17&#45;&gt;Node49 -->
<g id="edge39" class="edge"><title>Node17&#45;&gt;Node49</title>
<path fill="none" stroke="midnightblue" d="M30.8113,-370.09C33.4848,-331.527 44.945,-246.373 94,-200 100.952,-193.428 109.965,-189.09 119.169,-186.238"/>
<polygon fill="midnightblue" stroke="midnightblue" points="27.2949,-370.288 30.2318,-380.468 34.284,-370.678 27.2949,-370.288"/>
</g>
<!-- Node19 -->
<g id="node3" class="node"><title>Node19</title>
<g id="a_node3"><a xlink:href="classCLFQP.html" target="_top" xlink:title="This class defines a class of Control Lyapunov Functions (CLFs) that use quadratic programming (QP) ...">
<polygon fill="white" stroke="black" points="316.5,-342.5 316.5,-361.5 366.5,-361.5 366.5,-342.5 316.5,-342.5"/>
<text text-anchor="middle" x="341.5" y="-349.5" font-family="Helvetica,sans-Serif" font-size="10.00">CLFQP</text>
</a>
</g>
</g>
<!-- Node18&#45;&gt;Node19 -->
<g id="edge2" class="edge"><title>Node18&#45;&gt;Node19</title>
<path fill="none" stroke="midnightblue" d="M203.756,-337.196C238.177,-340.922 287.4,-346.251 316.443,-349.395"/>
<polygon fill="midnightblue" stroke="midnightblue" points="203.906,-333.692 193.588,-336.095 203.153,-340.651 203.906,-333.692"/>
</g>
<!-- Node20 -->
<g id="node4" class="node"><title>Node20</title>
<g id="a_node4"><a xlink:href="classIOFeedback.html" target="_top" xlink:title="This class defines the classic input&#45;output feedback linearization controller. ">
<polygon fill="white" stroke="black" points="306.5,-304.5 306.5,-323.5 376.5,-323.5 376.5,-304.5 306.5,-304.5"/>
<text text-anchor="middle" x="341.5" y="-311.5" font-family="Helvetica,sans-Serif" font-size="10.00">IOFeedback</text>
</a>
</g>
</g>
<!-- Node18&#45;&gt;Node20 -->
<g id="edge3" class="edge"><title>Node18&#45;&gt;Node20</title>
<path fill="none" stroke="midnightblue" d="M203.897,-328.789C234.53,-325.473 276.821,-320.894 306.2,-317.713"/>
<polygon fill="midnightblue" stroke="midnightblue" points="203.153,-325.349 193.588,-329.905 203.906,-332.308 203.153,-325.349"/>
</g>
<!-- Node21 -->
<g id="node5" class="node"><title>Node21</title>
<g id="a_node5"><a xlink:href="classJointPD.html" target="_top" xlink:title="This class defines a PD feedback control on the joint space. ">
<polygon fill="white" stroke="black" points="315.5,-418.5 315.5,-437.5 367.5,-437.5 367.5,-418.5 315.5,-418.5"/>
<text text-anchor="middle" x="341.5" y="-425.5" font-family="Helvetica,sans-Serif" font-size="10.00">JointPD</text>
</a>
</g>
</g>
<!-- Node18&#45;&gt;Node21 -->
<g id="edge4" class="edge"><title>Node18&#45;&gt;Node21</title>
<path fill="none" stroke="midnightblue" d="M203.56,-338.33C214.155,-341.142 225.151,-345.438 234,-352 258.067,-369.848 245.884,-391.218 270,-409 283.161,-418.705 300.96,-423.453 315.38,-425.777"/>
<polygon fill="midnightblue" stroke="midnightblue" points="204.136,-334.872 193.609,-336.063 202.582,-341.697 204.136,-334.872"/>
</g>
<!-- Node22 -->
<g id="node6" class="node"><title>Node22</title>
<g id="a_node6"><a xlink:href="classOutputPD.html" target="_top" xlink:title="This class defines the PD controller for system outputs. ">
<polygon fill="white" stroke="black" points="311.5,-380.5 311.5,-399.5 371.5,-399.5 371.5,-380.5 311.5,-380.5"/>
<text text-anchor="middle" x="341.5" y="-387.5" font-family="Helvetica,sans-Serif" font-size="10.00">OutputPD</text>
</a>
</g>
</g>
<!-- Node18&#45;&gt;Node22 -->
<g id="edge5" class="edge"><title>Node18&#45;&gt;Node22</title>
<path fill="none" stroke="midnightblue" d="M203.448,-342C213.532,-344.789 224.297,-348.156 234,-352 250.82,-358.663 253.162,-364.383 270,-371 283.214,-376.193 298.36,-380.478 311.218,-383.657"/>
<polygon fill="midnightblue" stroke="midnightblue" points="204.217,-338.583 193.654,-339.407 202.425,-345.35 204.217,-338.583"/>
</g>
<!-- Node24 -->
<g id="node8" class="node"><title>Node24</title>
<g id="a_node8"><a xlink:href="classRigidBody.html" target="_top" xlink:title="A coordinate frame that is rigidly attached to the CoM position of a rigid link. In addition...">
<polygon fill="white" stroke="black" points="310.5,-266.5 310.5,-285.5 372.5,-285.5 372.5,-266.5 310.5,-266.5"/>
<text text-anchor="middle" x="341.5" y="-273.5" font-family="Helvetica,sans-Serif" font-size="10.00">RigidBody</text>
</a>
</g>
</g>
<!-- Node23&#45;&gt;Node24 -->
<g id="edge7" class="edge"><title>Node23&#45;&gt;Node24</title>
<path fill="none" stroke="midnightblue" d="M220.452,-288.997C250.204,-285.776 285.713,-281.931 310.359,-279.263"/>
<polygon fill="midnightblue" stroke="midnightblue" points="219.761,-285.551 210.196,-290.107 220.514,-292.51 219.761,-285.551"/>
</g>
<!-- Node25 -->
<g id="node9" class="node"><title>Node25</title>
<g id="a_node9"><a xlink:href="classRigidJoint.html" target="_top" xlink:title="A coordinate frame that is rigidly attached to the origin a rigid joint and the child link of the joi...">
<polygon fill="white" stroke="black" points="311.5,-228.5 311.5,-247.5 371.5,-247.5 371.5,-228.5 311.5,-228.5"/>
<text text-anchor="middle" x="341.5" y="-235.5" font-family="Helvetica,sans-Serif" font-size="10.00">RigidJoint</text>
</a>
</g>
</g>
<!-- Node23&#45;&gt;Node25 -->
<g id="edge8" class="edge"><title>Node23&#45;&gt;Node25</title>
<path fill="none" stroke="midnightblue" d="M215.23,-282.548C221.618,-280.563 228.011,-278.372 234,-276 250.82,-269.337 253.162,-263.617 270,-257 283.214,-251.807 298.36,-247.522 311.218,-244.343"/>
<polygon fill="midnightblue" stroke="midnightblue" points="213.854,-279.306 205.255,-285.496 215.837,-286.019 213.854,-279.306"/>
</g>
<!-- Node1 -->
<g id="node11" class="node"><title>Node1</title>
<g id="a_node11"><a xlink:href="classContinuousDynamics.html" target="_top" xlink:title="Continuous state dynamic system governed by differential equations. ">
<polygon fill="white" stroke="black" points="286.5,-646.5 286.5,-665.5 396.5,-665.5 396.5,-646.5 286.5,-646.5"/>
<text text-anchor="middle" x="341.5" y="-653.5" font-family="Helvetica,sans-Serif" font-size="10.00">ContinuousDynamics</text>
</a>
</g>
</g>
<!-- Node0&#45;&gt;Node1 -->
<g id="edge10" class="edge"><title>Node0&#45;&gt;Node1</title>
<path fill="none" stroke="midnightblue" d="M223.071,-668.713C243.489,-666.503 266.336,-664.029 286.412,-661.856"/>
<polygon fill="midnightblue" stroke="midnightblue" points="222.521,-665.252 212.956,-669.808 223.275,-672.211 222.521,-665.252"/>
</g>
<!-- Node3 -->
<g id="node13" class="node"><title>Node3</title>
<g id="a_node13"><a xlink:href="classDiscreteDynamics.html" target="_top" xlink:title="Discrete event dynamic system governed by discrete transition map and triggered by discrete events...">
<polygon fill="white" stroke="black" points="292.5,-684.5 292.5,-703.5 390.5,-703.5 390.5,-684.5 292.5,-684.5"/>
<text text-anchor="middle" x="341.5" y="-691.5" font-family="Helvetica,sans-Serif" font-size="10.00">DiscreteDynamics</text>
</a>
</g>
</g>
<!-- Node0&#45;&gt;Node3 -->
<g id="edge12" class="edge"><title>Node0&#45;&gt;Node3</title>
<path fill="none" stroke="midnightblue" d="M223.039,-681.283C245.489,-683.714 270.88,-686.463 292.297,-688.781"/>
<polygon fill="midnightblue" stroke="midnightblue" points="223.275,-677.789 212.956,-680.192 222.521,-684.748 223.275,-677.789"/>
</g>
<!-- Node2 -->
<g id="node12" class="node"><title>Node2</title>
<g id="a_node12"><a xlink:href="classRobotLinks.html" target="_top" xlink:title="A class with basic model descriptions and functionalities of the multi&#45;link rigid&#45;body robot platform...">
<polygon fill="white" stroke="black" points="485.5,-646.5 485.5,-665.5 551.5,-665.5 551.5,-646.5 485.5,-646.5"/>
<text text-anchor="middle" x="518.5" y="-653.5" font-family="Helvetica,sans-Serif" font-size="10.00">RobotLinks</text>
</a>
</g>
</g>
<!-- Node1&#45;&gt;Node2 -->
<g id="edge11" class="edge"><title>Node1&#45;&gt;Node2</title>
<path fill="none" stroke="midnightblue" d="M406.962,-656C433.638,-656 463.39,-656 485.302,-656"/>
<polygon fill="midnightblue" stroke="midnightblue" points="406.912,-652.5 396.912,-656 406.912,-659.5 406.912,-652.5"/>
</g>
<!-- Node4 -->
<g id="node14" class="node"><title>Node4</title>
<g id="a_node14"><a xlink:href="classRigidImpact.html" target="_top" xlink:title="RigidImpact represents a rigid body impact map assuming that the impact is plastic and occurs instant...">
<polygon fill="white" stroke="black" points="484,-684.5 484,-703.5 553,-703.5 553,-684.5 484,-684.5"/>
<text text-anchor="middle" x="518.5" y="-691.5" font-family="Helvetica,sans-Serif" font-size="10.00">RigidImpact</text>
</a>
</g>
</g>
<!-- Node3&#45;&gt;Node4 -->
<g id="edge13" class="edge"><title>Node3&#45;&gt;Node4</title>
<path fill="none" stroke="midnightblue" d="M401.085,-694C428.584,-694 460.376,-694 483.781,-694"/>
<polygon fill="midnightblue" stroke="midnightblue" points="400.783,-690.5 390.783,-694 400.783,-697.5 400.783,-690.5"/>
</g>
<!-- Node28 -->
<g id="node17" class="node"><title>Node28</title>
<g id="a_node17"><a xlink:href="classfrost_1_1Animator_1_1Cylinder.html" target="_top" xlink:title="Cylinder depicting a cylinder surface between two points for frost.Animator.Display. ">
<polygon fill="white" stroke="black" points="280,-38.5 280,-57.5 403,-57.5 403,-38.5 280,-38.5"/>
<text text-anchor="middle" x="341.5" y="-45.5" font-family="Helvetica,sans-Serif" font-size="10.00">frost::Animator::Cylinder</text>
</a>
</g>
</g>
<!-- Node27&#45;&gt;Node28 -->
<g id="edge16" class="edge"><title>Node27&#45;&gt;Node28</title>
<path fill="none" stroke="midnightblue" d="M219.278,-74.2474C244.094,-68.8742 273.111,-62.5914 296.532,-57.5201"/>
<polygon fill="midnightblue" stroke="midnightblue" points="218.319,-70.874 209.286,-76.411 219.8,-77.7154 218.319,-70.874"/>
</g>
<!-- Node29 -->
<g id="node18" class="node"><title>Node29</title>
<g id="a_node18"><a xlink:href="classfrost_1_1Animator_1_1Lines.html" target="_top" xlink:title="Line object for frost.Animator.Display. ">
<polygon fill="white" stroke="black" points="286.5,-0.5 286.5,-19.5 396.5,-19.5 396.5,-0.5 286.5,-0.5"/>
<text text-anchor="middle" x="341.5" y="-7.5" font-family="Helvetica,sans-Serif" font-size="10.00">frost::Animator::Lines</text>
</a>
</g>
</g>
<!-- Node27&#45;&gt;Node29 -->
<g id="edge17" class="edge"><title>Node27&#45;&gt;Node29</title>
<path fill="none" stroke="midnightblue" d="M188.87,-70.939C209.657,-58.3424 240.938,-40.6176 270,-29 279.063,-25.3769 289.053,-22.2143 298.591,-19.5631"/>
<polygon fill="midnightblue" stroke="midnightblue" points="186.791,-68.1084 180.102,-76.3254 190.455,-74.0727 186.791,-68.1084"/>
</g>
<!-- Node30 -->
<g id="node19" class="node"><title>Node30</title>
<g id="a_node19"><a xlink:href="classfrost_1_1Animator_1_1Patch.html" target="_top" xlink:title="Patch depicting a polyhydron surface for frost.Animator.Display. ">
<polygon fill="white" stroke="black" points="285,-114.5 285,-133.5 398,-133.5 398,-114.5 285,-114.5"/>
<text text-anchor="middle" x="341.5" y="-121.5" font-family="Helvetica,sans-Serif" font-size="10.00">frost::Animator::Patch</text>
</a>
</g>
</g>
<!-- Node27&#45;&gt;Node30 -->
<g id="edge18" class="edge"><title>Node27&#45;&gt;Node30</title>
<path fill="none" stroke="midnightblue" d="M219.278,-97.7526C244.094,-103.126 273.111,-109.409 296.532,-114.48"/>
<polygon fill="midnightblue" stroke="midnightblue" points="219.8,-94.2846 209.286,-95.589 218.319,-101.126 219.8,-94.2846"/>
</g>
<!-- Node33 -->
<g id="node22" class="node"><title>Node33</title>
<g id="a_node22"><a xlink:href="classfrost_1_1Animator_1_1Sphere.html" target="_top" xlink:title="Sphere object for frost.Animator.Display. ">
<polygon fill="white" stroke="black" points="282.5,-76.5 282.5,-95.5 400.5,-95.5 400.5,-76.5 282.5,-76.5"/>
<text text-anchor="middle" x="341.5" y="-83.5" font-family="Helvetica,sans-Serif" font-size="10.00">frost::Animator::Sphere</text>
</a>
</g>
</g>
<!-- Node27&#45;&gt;Node33 -->
<g id="edge21" class="edge"><title>Node27&#45;&gt;Node33</title>
<path fill="none" stroke="midnightblue" d="M244.28,-86C257.052,-86 270.065,-86 282.224,-86"/>
<polygon fill="midnightblue" stroke="midnightblue" points="244.11,-82.5001 234.11,-86 244.11,-89.5001 244.11,-82.5001"/>
</g>
<!-- Node31 -->
<g id="node20" class="node"><title>Node31</title>
<g id="a_node20"><a xlink:href="classfrost_1_1Animator_1_1Pyramid.html" target="_top" xlink:title="Patch depicting a 3d Pyramid for frost.Animator.Display. ">
<polygon fill="white" stroke="black" points="457,-152.5 457,-171.5 580,-171.5 580,-152.5 457,-152.5"/>
<text text-anchor="middle" x="518.5" y="-159.5" font-family="Helvetica,sans-Serif" font-size="10.00">frost::Animator::Pyramid</text>
</a>
</g>
</g>
<!-- Node30&#45;&gt;Node31 -->
<g id="edge19" class="edge"><title>Node30&#45;&gt;Node31</title>
<path fill="none" stroke="midnightblue" d="M396.624,-135.753C421.369,-141.126 450.303,-147.409 473.658,-152.48"/>
<polygon fill="midnightblue" stroke="midnightblue" points="397.175,-132.291 386.66,-133.589 395.689,-139.131 397.175,-132.291"/>
</g>
<!-- Node32 -->
<g id="node21" class="node"><title>Node32</title>
<g id="a_node21"><a xlink:href="classfrost_1_1Animator_1_1Rectangler.html" target="_top" xlink:title="Patch depicting a 3d rectangler for frost.Animator.Display. ">
<polygon fill="white" stroke="black" points="451.5,-114.5 451.5,-133.5 585.5,-133.5 585.5,-114.5 451.5,-114.5"/>
<text text-anchor="middle" x="518.5" y="-121.5" font-family="Helvetica,sans-Serif" font-size="10.00">frost::Animator::Rectangler</text>
</a>
</g>
</g>
<!-- Node30&#45;&gt;Node32 -->
<g id="edge20" class="edge"><title>Node30&#45;&gt;Node32</title>
<path fill="none" stroke="midnightblue" d="M408.443,-124C422.526,-124 437.402,-124 451.487,-124"/>
<polygon fill="midnightblue" stroke="midnightblue" points="408.352,-120.5 398.352,-124 408.352,-127.5 408.352,-120.5"/>
</g>
<!-- Node34 -->
<g id="node23" class="node"><title>Node34</title>
<g id="a_node23"><a xlink:href="classfrost_1_1Animator_1_1JointSphere.html" target="_top" xlink:title="Sphere depicting joints and axis of rotation for frost.Animator.Display. ">
<polygon fill="white" stroke="black" points="449,-76.5 449,-95.5 588,-95.5 588,-76.5 449,-76.5"/>
<text text-anchor="middle" x="518.5" y="-83.5" font-family="Helvetica,sans-Serif" font-size="10.00">frost::Animator::JointSphere</text>
</a>
</g>
</g>
<!-- Node33&#45;&gt;Node34 -->
<g id="edge22" class="edge"><title>Node33&#45;&gt;Node34</title>
<path fill="none" stroke="midnightblue" d="M411.059,-86C423.483,-86 436.441,-86 448.867,-86"/>
<polygon fill="midnightblue" stroke="midnightblue" points="410.773,-82.5001 400.772,-86 410.772,-89.5001 410.773,-82.5001"/>
</g>
<!-- Node35 -->
<g id="node24" class="node"><title>Node35</title>
<g id="a_node24"><a xlink:href="classfrost_1_1Animator_1_1LinkSphere.html" target="_top" xlink:title="Sphere depicting center of mass of a rigid link for frost.Animator.Display. ">
<polygon fill="white" stroke="black" points="450.5,-38.5 450.5,-57.5 586.5,-57.5 586.5,-38.5 450.5,-38.5"/>
<text text-anchor="middle" x="518.5" y="-45.5" font-family="Helvetica,sans-Serif" font-size="10.00">frost::Animator::LinkSphere</text>
</a>
</g>
</g>
<!-- Node33&#45;&gt;Node35 -->
<g id="edge23" class="edge"><title>Node33&#45;&gt;Node35</title>
<path fill="none" stroke="midnightblue" d="M396.624,-74.2474C421.369,-68.8742 450.303,-62.5914 473.658,-57.5201"/>
<polygon fill="midnightblue" stroke="midnightblue" points="395.689,-70.8686 386.66,-76.411 397.175,-77.7092 395.689,-70.8686"/>
</g>
<!-- Node40 -->
<g id="node30" class="node"><title>Node40</title>
<g id="a_node30"><a xlink:href="classHybridTrajectoryOptimization.html" target="_top" xlink:title="HybridTrajectoryOptimization defines a particular type of nonlinear programing problem — trajectory ...">
<polygon fill="white" stroke="black" points="270,-494.5 270,-513.5 413,-513.5 413,-494.5 270,-494.5"/>
<text text-anchor="middle" x="341.5" y="-501.5" font-family="Helvetica,sans-Serif" font-size="10.00">HybridTrajectoryOptimization</text>
</a>
</g>
</g>
<!-- Node39&#45;&gt;Node40 -->
<g id="edge29" class="edge"><title>Node39&#45;&gt;Node40</title>
<path fill="none" stroke="midnightblue" d="M215.23,-459.452C221.618,-461.437 228.011,-463.628 234,-466 250.82,-472.663 253.162,-478.383 270,-485 279.202,-488.616 289.342,-491.793 298.993,-494.462"/>
<polygon fill="midnightblue" stroke="midnightblue" points="215.837,-455.981 205.255,-456.504 213.854,-462.694 215.837,-455.981"/>
</g>
<!-- Node41 -->
<g id="node31" class="node"><title>Node41</title>
<g id="a_node31"><a xlink:href="classTrajectoryOptimization.html" target="_top" xlink:title="TrajectoryOptimization defines a particular type of nonlinear programing problem — trajectory optimi...">
<polygon fill="white" stroke="black" points="284,-532.5 284,-551.5 399,-551.5 399,-532.5 284,-532.5"/>
<text text-anchor="middle" x="341.5" y="-539.5" font-family="Helvetica,sans-Serif" font-size="10.00">TrajectoryOptimization</text>
</a>
</g>
</g>
<!-- Node39&#45;&gt;Node41 -->
<g id="edge30" class="edge"><title>Node39&#45;&gt;Node41</title>
<path fill="none" stroke="midnightblue" d="M221.229,-458.56C225.759,-460.642 230.089,-463.1 234,-466 258.067,-483.848 245.884,-505.218 270,-523 275.305,-526.912 281.364,-530.019 287.652,-532.486"/>
<polygon fill="midnightblue" stroke="midnightblue" points="222.307,-455.222 211.721,-454.79 219.727,-461.729 222.307,-455.222"/>
</g>
<!-- Node44 -->
<g id="node35" class="node"><title>Node44</title>
<g id="a_node35"><a xlink:href="classIpoptApplication.html" target="_top" xlink:title="IpoptApplication defines an interface application class for IPOPT solvers. ">
<polygon fill="white" stroke="black" points="298.5,-456.5 298.5,-475.5 384.5,-475.5 384.5,-456.5 298.5,-456.5"/>
<text text-anchor="middle" x="341.5" y="-463.5" font-family="Helvetica,sans-Serif" font-size="10.00">IpoptApplication</text>
</a>
</g>
</g>
<!-- Node43&#45;&gt;Node44 -->
<g id="edge34" class="edge"><title>Node43&#45;&gt;Node44</title>
<path fill="none" stroke="midnightblue" d="M219.639,-381.847C224.744,-384.076 229.634,-386.762 234,-390 258.067,-407.848 245.884,-429.218 270,-447 278.264,-453.094 288.357,-457.233 298.293,-460.045"/>
<polygon fill="midnightblue" stroke="midnightblue" points="220.872,-378.572 210.281,-378.31 218.397,-385.12 220.872,-378.572"/>
</g>
<!-- Node46 -->
<g id="node37" class="node"><title>Node46</title>
<g id="a_node37"><a xlink:href="classSymFunction.html" target="_top" xlink:title="This class wraps a symbolic expression with additional information for the convenience of compiling a...">
<polygon fill="white" stroke="black" points="304.5,-190.5 304.5,-209.5 378.5,-209.5 378.5,-190.5 304.5,-190.5"/>
<text text-anchor="middle" x="341.5" y="-197.5" font-family="Helvetica,sans-Serif" font-size="10.00">SymFunction</text>
</a>
</g>
</g>
<!-- Node45&#45;&gt;Node46 -->
<g id="edge36" class="edge"><title>Node45&#45;&gt;Node46</title>
<path fill="none" stroke="midnightblue" d="M215.23,-244.548C221.618,-242.563 228.011,-240.372 234,-238 250.82,-231.337 253.162,-225.617 270,-219 280.972,-214.688 293.276,-211.002 304.497,-208.055"/>
<polygon fill="midnightblue" stroke="midnightblue" points="213.854,-241.306 205.255,-247.496 215.837,-248.019 213.854,-241.306"/>
</g>
<!-- Node47 -->
<g id="node38" class="node"><title>Node47</title>
<g id="a_node38"><a xlink:href="classSymVariable.html" target="_top" xlink:title="An object that represents a list of symbolic variables. ">
<polygon fill="white" stroke="black" points="305.5,-152.5 305.5,-171.5 377.5,-171.5 377.5,-152.5 305.5,-152.5"/>
<text text-anchor="middle" x="341.5" y="-159.5" font-family="Helvetica,sans-Serif" font-size="10.00">SymVariable</text>
</a>
</g>
</g>
<!-- Node45&#45;&gt;Node47 -->
<g id="edge37" class="edge"><title>Node45&#45;&gt;Node47</title>
<path fill="none" stroke="midnightblue" d="M216.785,-247.343C222.918,-244.899 228.826,-241.837 234,-238 258.067,-220.152 245.884,-198.782 270,-181 280.203,-173.477 293.192,-168.932 305.234,-166.187"/>
<polygon fill="midnightblue" stroke="midnightblue" points="215.353,-244.134 207.036,-250.697 217.63,-250.753 215.353,-244.134"/>
</g>
<!-- Node7 -->
<g id="node41" class="node"><title>Node7</title>
<polygon fill="white" stroke="#bfbfbf" points="0,-627.5 0,-646.5 58,-646.5 58,-627.5 0,-627.5"/>
<text text-anchor="middle" x="29" y="-634.5" font-family="Helvetica,sans-Serif" font-size="10.00">Copyable</text>
</g>
<!-- Node7&#45;&gt;Node0 -->
<g id="edge40" class="edge"><title>Node7&#45;&gt;Node0</title>
<path fill="none" stroke="midnightblue" d="M67.803,-648.358C76.4051,-650.905 85.5102,-653.571 94,-656 104.99,-659.144 116.992,-662.482 127.86,-665.469"/>
<polygon fill="midnightblue" stroke="midnightblue" points="68.5856,-644.94 58.0028,-645.445 66.5907,-651.649 68.5856,-644.94"/>
</g>
<!-- Node7&#45;&gt;Node13 -->
<g id="edge41" class="edge"><title>Node7&#45;&gt;Node13</title>
<path fill="none" stroke="midnightblue" d="M68.6746,-637C86.2343,-637 106.952,-637 124.492,-637"/>
<polygon fill="midnightblue" stroke="midnightblue" points="68.2059,-633.5 58.2059,-637 68.2058,-640.5 68.2059,-633.5"/>
</g>
<!-- Node7&#45;&gt;Node14 -->
<g id="edge42" class="edge"><title>Node7&#45;&gt;Node14</title>
<path fill="none" stroke="midnightblue" d="M67.803,-625.642C76.4051,-623.095 85.5102,-620.429 94,-618 106.543,-614.412 120.405,-610.57 132.393,-607.288"/>
<polygon fill="midnightblue" stroke="midnightblue" points="66.5907,-622.351 58.0028,-628.555 68.5856,-629.06 66.5907,-622.351"/>
</g>
</g>
</svg>
